<?xml version="1.0" encoding="utf-8"?>
<!-- Generator: Adobe Illustrator 26.4.1, SVG Export Plug-In . SVG Version: 6.00 Build 0)  -->
<svg version="1.1" id="Layer_1" xmlns="http://www.w3.org/2000/svg" xmlns:xlink="http://www.w3.org/1999/xlink" x="0px" y="0px"
	 viewBox="0 0 552.9 367.9" style="enable-background:new 0 0 552.9 367.9;" xml:space="preserve">
<style type="text/css">
	.st0{fill:#FFFFFF;}
</style>
<g>
	<path class="st0" d="M313.7,101.1c3.8-1.9,6.1-5,8.1-8.6c0.6-1.1,1.3-2.3,1.9-3.5c0.9-1.6,1.9-3,3.2-4.3c0.8-0.8,1.1-1.7,1-2.8
		c-0.2-1.3-1-2-2.3-1.9c-0.6,0.1-1.3,0.2-1.9,0.4c-2.2,0.9-4.3,1.7-6.3,3c-2.3,1.5-4.5,3.2-6.5,5.2c-1.1,1.1-2.4,2-3.7,2.9
		c-2.3,1.7-4.4,3.7-5.8,6.4c-0.3,0.5-0.5,1.1-0.8,1.6c-1.7,2.5-2.3,5.3-2.4,8.2c0,0.3-0.1,0.5-0.2,1.1c-1-1.8-0.7-3.4-0.4-4.9
		c0.3-1.6,0.7-3.1,1.1-4.7c-1,0.6-1.8,1.3-2.8,1.7c-1.4,0.6-2.9,1.1-4.4,1.6c-1,0.3-1.7,0.9-2.3,1.7c-0.8,1.1-1.6,2.2-2.4,3.3
		c-0.6,0.8-1.2,1.7-2,2.3c-1.4,1.3-2.6,2.7-3.6,4.3c-1.6,2.5-3.5,4.8-5.5,7c-1.4,1.5-2,3.2-2.4,5.1c-0.3,1.7-0.7,3.3-1.3,4.9
		c-1.1,3.6-3.4,6.4-6.1,8.8c-0.8,0.7-1.7,1.4-2.5,2.2c-0.4,0.3-0.7,0.8-1,1.2c-1.5,2.2-3.3,4.3-5.7,5.6c-2.6,1.4-5.4,2.5-8.4,2.9
		c-0.9,0.1-1.6,0.5-2.3,1.2c-3.2,3.2-6.9,5.6-11.1,7.3c-4.4,1.8-9,2.9-13.6,3.9c-1.2,0.3-2.3,0.6-3.5,0.8c-0.7,0.1-1.1,0.5-1.5,1
		c-2.2,3.2-4.6,6.2-6.8,9.5c-2.2,3.3-4.4,6.7-6.5,10.1c-4.7,7.8-9.3,15.5-13.9,23.4c-1.7,2.9-3.2,5.8-4.7,8.8
		c-2.6,4.9-4.4,10.1-5.6,15.6c-1.1,5.1-2.3,10.1-3.5,15.2c-0.3,1.1-0.6,2.1-1,3.2c-2.1,5-4.2,10.1-6.4,15c-1.6,3.5-3.3,7-5.1,10.4
		c-2.4,4.6-3.6,9.5-4.2,14.6c-0.7,6.4-1.2,12.8-0.8,19.2c0.4,6.8,1.6,13.4,4.3,19.7c1.8,4.1,4.2,7.8,7.3,11c2.2,2.4,4.3,4.8,6,7.6
		c0.5,0.9,0.5,1.7,0.2,2.5c-0.3,0.9-1.1,1.2-2,0.7c-0.4-0.2-0.6-0.5-1-0.8c-2.9-2.4-5.2-5.2-7.1-8.5c-0.2-0.3-0.4-0.7-0.7-1.1
		c-0.3,1.5-0.4,2.8-0.8,4.1c-0.4,1.4-1,2.7-1.7,4c-0.5,1-1.3,1.6-2.4,1.9c-1.1,0.3-2.1,0.8-3.3,0.3c-1.4-0.6-2.6-1.4-3.4-2.7
		c-1.4-2.2-2.5-4.5-3.1-7c-0.7-2.5-1.3-5-2-7.5c-0.1-0.6-0.4-0.9-1-1.2c-1.2-0.4-2.3-1-3-2.1c-0.3-0.5-0.6-0.9-0.8-1.5
		c-0.5-1.4-0.1-2.3,1.2-3.1c0.4-0.2,0.7-0.4,1.1-0.6c-0.2-0.4-0.3-0.8-0.5-1.2c-3.9-9.7-5.3-19.7-5-30.1c0.2-7.3,1.1-14.4,2.9-21.5
		c0.1-0.5,0.2-1,0.4-1.5c0.4-1.2,0.5-2.3-0.1-3.6c-0.5-1.4-0.6-3-0.6-4.5c0.1-3.6-0.2-7-0.8-10.5c-0.9-5.1-0.6-10.1,0.4-15.1
		c1.2-5.6,3.3-10.7,6-15.7c0.5-0.9,1-1.9,1.6-2.8c0.3-0.4,0.3-0.8,0.1-1.3c-0.9-2-0.9-4.3-0.7-6.4c0.3-4.4,1.6-8.6,3.4-12.6
		c2-4.5,4.9-8.5,8-12.2c4-4.8,8.6-9,13.9-12.5c0.1-0.1,0.2-0.1,0.5-0.3c-0.4-0.1-0.6-0.2-0.8-0.3c-1.9-0.6-3.4-1.8-4.5-3.4
		c-2.2-3.3-3.5-6.9-3.5-10.9c0-1.6,0.5-3.2,0.8-4.8c0.1-0.6,0.3-1.1,0.4-1.8c-2-0.8-3.5-2.1-4.9-3.6c-1.7-1.9-3.2-4-3.7-6.6
		c-0.1-0.8-0.2-1.6,0-2.4c0.6-3,1.7-5.9,3.3-8.5c1.6-2.7,3.9-4.7,6.7-6.2c0.8-0.4,1.1-0.9,1.1-1.8c0.3-3,1.1-5.9,2.1-8.7
		c0.7-2.1,1.6-4.1,2.6-6.1c0.4-0.9,1-1.7,1.6-2.4c1.1-1.3,1.1-1.3,1.7-3.2c-0.3,0-0.7-0.1-0.9,0c-4.6,1-9.3,1-14,0.7
		c-1.6-0.1-3.3-0.4-4.9-0.7c-1.8-0.3-3.7-0.6-5.5-1.1c-2.5-0.7-4.7-1.9-6.8-3.3c-2.6-1.8-4.5-4.1-6.3-6.6c-1-1.5-1.8-3.3-2.2-5.1
		c-0.3-1.4-0.1-3,0.6-4.4c0.4-0.9,1.2-1.4,2-1.7c2.5-1.1,5.1-1.6,8-1.1c2.8,0.5,5.4,1.6,8,3c2.1,1.1,4.2,2.1,6.4,2.8
		c2.3,0.7,4.5,1.7,6.7,2.5c3.2,1.2,6.4,2.1,9.8,2.4c2.6,0.2,5.2,0,8,0c-0.3-0.2-0.4-0.4-0.5-0.4c-4.3-1.4-7.7-4.2-11.1-6.9
		c-2.5-2-4.9-4.2-7-6.7c-1.3-1.6-2.4-3.4-3.3-5.3c-1.8-3.6-3-7.3-3-11.4c0-0.7,0.1-1.5,0.3-2.1c1-2.4,2.2-4.6,4.6-6
		c0.9-0.5,1.7-1.3,2.7-1.7c1.8-0.6,3.8-1,5.8-1c4.7,0.1,9.2,0.8,13.7,2.1c2.8,0.8,5.5,1.7,8.4,2.7c1.3-1.5,2.6-3.1,4-4.6
		c0.8-0.9,1.6-1.8,2.4-2.8c0.2-0.3,0.5-0.7,0.5-1.1c0.3-1.7,0.6-3.4,0.9-5.1c0.2-1.3,0.4-2.5,0.6-3.8c0.2-0.8,0.3-1.7,0.6-2.5
		c0.9-2.9,1.7-5.9,3.4-8.5c0.2-0.3,0.3-0.7,0.5-1c0-0.1,0-0.2,0-0.3c-1.4-0.1-2.9-0.2-4.3-0.2c-0.7,0-1.1,0.5-1.5,1.1
		c-0.2,0.2-0.2,0.5-0.4,0.8c-0.2,0.5-0.6,0.9-1.2,0.7c-0.6-0.1-0.8-0.6-0.8-1.1c0-1.7,0.3-3.4,1.5-4.8c1.5-1.8,3.4-3.3,5.5-4.3
		c2.6-1.3,5-1.2,7.3,0.9c1.7-1.6,3.4-3.3,5.1-5c3.2-3.3,6.7-6.3,10.9-8.4c6.7-3.4,13.8-5.2,21.4-4.7c3.5,0.2,7,0.8,10.5,1.6
		C268.8,3,273,5,277,7.4c6,3.6,11.4,7.9,16.4,12.8c2.3,2.2,4.6,4.3,6.9,6.5c0.3,0.3,0.7,0.6,1.1,0.9c0.9,0.8,1.9,1.2,3.1,1.3
		c4.1,0.5,8.1,1,12.1,1.7c2.1,0.4,4.2,1,6.3,1.6c4,1.2,7.8,2.8,11.7,4.4c6.9,2.9,14.1,4,21.5,2.7c1.6-0.3,3.1-0.9,4.6-1.5
		c0.7-0.2,1.2-0.7,1.9-1.2c-0.3-0.3-0.4-0.6-0.7-0.8c-1.6-1.3-3.2-2.7-4.9-3.9c-4.3-3-8.9-5.4-13.7-7.4c-4.6-1.9-9.3-3.6-13.9-5.3
		c-0.9-0.3-1.7-0.4-2.6-0.1c-1.8,0.5-3.7,1-5.6,1.4c1.1-1.1,2.6-1.6,4.2-2.3c-0.5-0.2-0.7-0.3-1-0.4c-7-2-14.2-3.6-21.4-4.7
		c-1-0.2-2-0.2-3-0.3c-0.4-0.1-0.9-0.2-1.5-0.4c0.6-0.5,1.1-0.4,1.6-0.3c2.8,0.4,5.6,0.7,8.3,1.1c5.9,0.8,11.8,2.2,17.6,3.8
		c1.2,0.3,2.3,0.4,3.5,0.1c4.7-1,9.5-1.1,14.2-0.4c0.2,0,0.4,0.1,0.6,0.1c0.1,0,0.2,0,0.5-0.1c-5.5-1.7-10.9-2.4-16.7-2
		c0.7-0.6,1.4-0.9,2.1-1c3.1-0.5,6.2-0.3,9.3,0.1c5.5,0.9,10.9,2.4,16,4.8c3,1.5,5.9,3.1,8.1,5.8c1.7,2,3.6,3.8,5.3,5.8
		c2.5,2.9,3.4,6.4,3.3,10.2c0,1.4-0.4,2.8-1.1,4c-2.1,3.3-4.9,5.6-8.8,6.5c-5.8,1.3-11.5,1-17.2-0.6c-6.3-1.8-12.4-3.9-18.6-6
		c-7-2.4-13.8-5.1-21-6.7c-3.8-0.9-7.7-1.5-11.5-2.3c-7.7-1.5-15.4-1.7-23.2-1c-9.2,0.8-18.1,2.7-26.6,6.2c-1.9,0.8-3.5,1.9-5,3.2
		c-1.8,1.6-3.6,3.3-4.9,5.3c-1.4,2.1-2.3,4.3-2.7,6.8c-0.4,2.6,0.8,4.6,2.9,6c2.1,1.5,4.6,2.4,7,3.3c4.7,1.7,9.7,2,14.7,2.6
		c1.6,0.2,3.1,0.3,4.7,0.4c4.8,0.1,9.4-0.7,14-1.8c0.7-0.2,1.4-0.3,2.2-0.4c-0.2,0.7-0.7,0.7-1.1,0.7c-3,0.6-6,1.2-9,1.8
		c-4.7,1-9.4,0.6-14.1,0.2c-2.2-0.2-4.3-0.4-6.5-0.6c-4.6-0.6-8.9-1.9-12.9-4.1c-0.1,0-0.2-0.1-0.4-0.1c0.2,0.3,0.2,0.6,0.4,0.8
		c3,3.6,6.5,6.8,10.7,9c0.3,0.2,0.6,0.3,0.9,0.5c2.8,1.8,5.9,2.7,9.1,3.1c1.7,0.2,3.5,0.3,5.2-0.1c6.1-1.3,11.8-3.6,17.2-6.5
		c3-1.6,5.8-3.4,8.7-5.1c1.3-0.7,2.6-1.4,3.8-2c4.2-2.2,8.4-4.5,12.6-6.8c2-1.1,4.2-1.8,6.3-2.6c3-1.2,6.2-1.8,9.4-2.4
		c6-1.1,11.7,0.1,17,3c2.6,1.4,4.6,3.5,5.8,6.2c1.4,3.1,1.1,6-0.4,8.8c-1.1,2.2-2.7,4.1-4.4,5.9c-0.6,0.7-1.5,1.1-2.4,1.8
		c0.5,0.4,1,0.8,1.5,1.2c1.6,1.3,3,2.7,3.9,4.5c0.5,1,0.8,2.1,1.3,3.3c1,0,2.2,0.1,3.3,0.2c0.5,0,1.1-0.1,1.5,0.1
		c1,0.4,1.5-0.1,2.3-0.7c1-0.8,2.1-1.4,3.3-2c0.5-0.2,1.1-0.2,1.6-0.3c0.8-0.1,1.4,0.3,1.8,1c0.4,0.7,0.2,1.3-0.2,1.9
		c-0.1,0.2-0.3,0.4-0.6,0.7c1.6,0.2,3,0.4,4.4,0.5c2.8,0.1,5.5,0.4,8.2,1.1c2.2,0.6,4.3,1.4,6.4,2.2c1.1,0.4,2.1,1.1,3.3,1.4
		c2.7,0.9,4.9,2.6,7.1,4.4c1.1,0.8,2,1.9,2.9,2.8c2.3,2.4,3.9,5.1,4.9,8.3c0.3,0.9,0.2,1.9,0.2,2.9c0.8,0.8,1.6,1.6,2.4,2.4
		c2,0.3,4.1,0.5,6.2,0.9c2.3,0.4,4.5,1.4,6.5,2.6c1.4,0.8,2.5,1.9,3.1,3.4c0.6,1.4,0.5,2.7-0.4,3.9c-1.2,1.7-3,2.8-5,3.4
		c-3.9,1.2-7.8,1.8-11.8,1.7c-1.5,0-3.1,0.1-4.6,0c-0.9,0-1.8-0.3-2.8-0.4c-0.3,0-0.6,0-0.8,0c-1.4,0.4-2.8,0.8-4.2,1.2
		c0.3,0.1,0.5,0.3,0.8,0.3c4.1,0.7,7.8,2.4,11.6,3.9c2.6,1,5,2.3,7.4,3.7c3,1.8,5.4,4.3,7,7.4c0.2,0.4,0.4,0.8,0.7,1.2
		c1.1,2,0.8,3.8-0.6,5.6c-2.4,3.2-5.7,5.1-9.6,6.2c-4.7,1.3-9.5,2-14.4,2.1c-0.3,0-0.6,0-1.1,0.1c0.3,0.5,0.6,1,0.8,1.4
		c2.1,3.3,3.6,6.8,4.3,10.6c1.5,7.9-1,14.5-6.9,19.9c-2.1,2-4.6,3.4-7.2,4.5c-3.4,1.4-6.9,2.4-10.5,3.2c-3,0.7-6.1,1.2-9.2,1.6
		c-0.2,0-0.5,0.1-0.8,0.1c0.2,0.8,0.3,1.5,0.5,2.2c0.4,2.1,0.8,4.2,1.1,6.3c0.1,0.7,0.4,1.1,1,1.5c2.4,1.3,4.9,1.7,7.5,1.7
		c5.4,0,10.8-0.8,16.1-1.8c5.5-1,11-1.8,16.6-1.4c3.2,0.2,6.3,0.7,9.2,1.8c3.4,1.2,6,3.5,8.1,6.4c0.8,1.1,1,2.3,1.2,3.6
		c0.3,2.4,0.1,4.8-1,7c-1.1,2-2.2,4.1-3.3,6.1c-0.9,1.7-2.2,3-3.8,4c-0.3,0.2-0.5,0.4-0.9,0.7c0.3,0.7,0.6,1.5,0.9,2.1
		c1.6,0.1,3,0.1,4.4,0.4c1.5,0.3,3,0.8,4.2,2c1.6,1.7,2.2,3.8,2,6c-0.2,1.6-0.6,3.3-1.1,4.8c-1,3-3,5.2-5.5,7
		c-2.9,2-5.9,3.8-9.1,5.1c-0.4,0.2-0.8,0.4-1.2,0.5c-4.9,1.4-9.3,4-13.7,6.5c-5.7,3.1-9.3,8-10.9,14.3c-0.5,2.1-0.9,4.3-1.2,6.5
		c-0.5,3.5-1.6,6.8-3.4,9.8c-2.6,4.4-6.3,7.4-10.6,9.9c-1.3,0.8-2.5,1.7-3.2,3.2c-0.7,1.6-1.6,3.1-2.5,4.6c-1.8,3-4.1,5.3-7.3,6.7
		c-0.3,0.1-0.6,0.3-0.9,0.4c-1.2,0.1-1.6,0.9-1.8,1.9c0,0.3-0.1,0.7-0.1,1c0.7,0.3,1.4,0.2,2-0.2c0.9-0.6,1.9-1.3,2.7-2.1
		c1.4-1.6,2.8-3.2,4.1-4.9c0.3-0.3,0.5-0.8,1.2-0.8c-0.1,0.3-0.1,0.6-0.2,0.9c-1.7,3-3.7,5.8-6.5,8c-0.4,0.3-0.8,0.5-1.2,0.7
		c-1.4,0.7-2.2,0.6-3.4-0.5c-0.2,0.4-0.4,0.8-0.6,1.1c-1.6,3.6-3.4,7.2-4.9,10.8c-0.7,1.6-1.8,2.2-3.4,1.2c-0.1-0.1-0.3-0.2-0.6-0.3
		c0.3-0.8,0.5-1.5,0.8-2.2c2-4.6,4.1-9.2,6.4-13.6c0.4-0.8,0.6-1.5,0.1-2.3c-1.5-2.5-1.8-5.3-1.6-8.1c0-0.6-0.1-1.2-0.1-1.9
		c-0.2,0.2-0.3,0.3-0.4,0.4c-1.9,3.6-3.9,7.1-5.5,10.8c-1.7,3.8-3.8,7.4-6,10.9c-0.6,1-1.4,1.8-2.2,2.6c-0.5,0.5-0.6,0.5-1.7,0.3
		c0.4-1.2,0.9-2.4,1.6-3.4c2.6-4,4.7-8.3,6.7-12.6c1.7-3.6,3.6-7,5.4-10.6c1.7-3.3,3.1-6.7,4.2-10.3c1.1-3.8,2.5-7.6,3.7-11.4
		c1-3.1,2-6.2,2.8-9.4c1-3.8,2.1-7.6,2.5-11.6c0.2-2.6,0.5-5.2,0.5-7.9c0.1-3.4-0.5-6.8-1-10.2c-0.3-2.6-0.7-5.2-1-7.9
		c0-0.2,0-0.4,0.3-0.7c0.2,0.9,0.5,1.7,0.7,2.6c0.9,4.3,1.9,8.6,2.5,12.9c0.5,3.4,0.3,6.9,0.1,10.3c-0.3,3.8-1.2,7.6-2,11.3
		c-0.2,1-0.6,2.1-0.9,3.1c-1.1,3.8-2.2,7.5-3.1,11.4c0.2-0.2,0.3-0.4,0.5-0.6c3-5.4,6.6-10.5,11-14.8c2.6-2.5,5.5-4.7,8.3-7
		c0.7-0.6,1.3-1.2,1.6-2c1.5-3.6,2.4-7.3,3-11c1.4-7.8,0.9-15.5-1.2-23.1c-0.9-3.4-2-6.7-3.5-9.8c-1.5-3-3.1-5.9-5-8.6
		c-1.1-1.6-2.7-2.9-4.2-4.3c-0.3-0.3-0.6-0.4-1.2-0.8c0.2,0.5,0.3,0.8,0.4,1c0.2,0.4,0.4,0.8,0.7,1.2c1.8,2.9,2.2,6.1,1.5,9.3
		c-0.4,1.9-1.2,3.6-2.6,5c-0.8,0.8-1.6,1.5-2.4,2.1c-1.6,1.3-3,2.8-3.7,4.8c-0.2,0.5-0.4,1-0.6,1.5c-1.4,3.5-4.1,5.3-7.7,6
		c-2.1,0.4-4.2,0.6-6.3,1c-1.3,0.2-2.6,0.6-4,0.4c-3.2-0.4-6-1.8-8.2-4.2c-1.1-1.2-2.1-2.4-3.8-2.8c-0.3-0.1-0.6-0.4-0.9-0.7
		c-0.7-1-1.2-2.1-1.4-3.3c-0.3-1.8-0.5-3.6-0.7-5.4c-0.3-2.3-0.8-4.6-1.6-6.8c-0.5-1.2-1.2-2.2-2.3-3c-2.3-1.6-4.7-3.3-6.9-5
		c-4.2-3.2-7.6-7-10.3-11.5c-0.9-1.5-2-2.6-3.5-3.5c-2.3-1.4-4.6-2.9-6.9-4.4c-0.7-0.4-1.4-0.7-2.1-0.7c-4.1-0.3-8,0.3-11.7,1.9
		c-0.4,0.2-0.9,0.5-1.1,0.9c-2.9,4.9-5.7,9.8-8.6,14.6c-0.4,0.7-0.4,1.4-0.2,2.2c1,3.2,2.8,5.9,5.3,8.1c2.2,1.9,4.4,3.6,6.6,5.4
		c3.7,3.1,8,5.4,12,8.3c1.7,1.2,3.4,2.6,4.9,4.1c3.1,3.1,6,6.4,8.3,10.1c2.9,4.6,4.4,9.6,5.2,14.8c0.3,2,0.5,4.1,0.7,6.1
		c0.4,3.9,0.4,7.9,0.1,11.9c-0.5,6.1-1.5,12.1-3.6,17.8c-1.3,3.8-2.8,7.5-4.3,11.2c-0.4,1-1.1,1.8-1.7,2.7c-0.2,0.2-0.4,0.5-0.6,0.6
		c-0.2,0.1-0.6,0.2-0.8,0c-0.2-0.1-0.3-0.5-0.2-0.8c0.1-0.7,0.3-1.3,0.6-2c1-2.7,2.1-5.3,3.1-8c1.4-3.5,2-7.1,2.7-10.7
		c1.2-5.8,0.8-11.6,0.7-17.4c-0.1-4.5-0.7-9-1.9-13.4c-1.4-5.2-3.7-10-6.8-14.3c-0.4-0.6-1-1.2-1.5-1.7c-1.1-1.1-2.2-2.2-3.3-3.2
		c-1.2-1-2.4-1.9-3.6-2.8c-0.9-0.7-1.8-1.4-2.7-2.1c-1.9-1.4-3.7-2.9-5.6-4.3c-1.4-1.1-2.9-2.1-4.3-3.2c-0.2-0.2-0.4-0.3-0.6-0.5
		c-3.2-3.3-6.8-6.2-9.5-9.9c-0.7-1-1.3-2-2-3.1c-0.1,0.1-0.2,0.2-0.3,0.4c-1.5,3.1-2.9,6.2-3.3,9.6c-0.3,2.4-0.5,4.9-0.8,7.4
		c-0.1,0.6-0.2,1.3-0.3,1.9c-0.4,2-0.9,4-1.4,6c-1.3,6.2-4.1,11.7-7.7,16.8c-1.5,2.2-3,4.4-4.6,6.6c-1.5,2-3,4-4.4,6.1
		c-1.2,1.7-2.1,3.5-2.8,5.4c-1.4,3.9-2.1,7.9-3.1,11.8c-0.2,0.9-0.4,1.9-0.9,2.7c-0.1,0-0.2,0-0.3-0.1c0-0.3,0-0.6,0.1-0.9
		c1.2-4.4,2.4-8.9,3.7-13.3c0.7-2.3,1.7-4.4,2.6-6.6c0.6-1.4,1.2-2.8,2-4.1c2-3.3,4.1-6.6,6.3-9.8c1.8-2.6,3.1-5.4,3.9-8.4
		c1.2-4.4,2.1-9,2-13.6c0-0.9,0-1.8-0.1-2.7c-0.2-3.5,0-7,1.6-10.2c0.3-0.6,0.5-1.4,0.7-2c0.3-0.7,0.4-1.5,0.8-2.2
		c1.5-3,2.7-6,4.4-8.9c2.5-4.3,4.9-8.7,7.1-13.1c1-2.1,1.7-4.4,2.4-6.6c0.3-0.9,0.2-1.6-0.7-2.3c-1-0.8-1.9-1.8-2.7-2.9
		c-3-4.3-5.2-8.9-5.8-14.1c-0.1-1.2-0.1-2.4-0.1-3.6c0.5,1.8,0.9,3.6,1.5,5.3c0.5,1.3,1.1,2.6,1.8,3.8c0.9,1.5,2.2,2.6,3.8,3.3
		c0.3,0.1,0.7,0.3,1,0.2c1.4-0.5,2.8-1,3.7-2.4c0.3-0.4,0.3-0.8,0.1-1.2c-2-5.1-2-10.3-1.3-15.6c0.4-3.2,1.2-6.4,2.3-9.4
		c0.5-1.4,1.2-2.8,1.9-4.2c0.7-1.4,1.5-2.7,2.2-4.1c0.8-1.7,2.1-3.1,3.3-4.5c1.1-1.3,2.1-2.6,3.2-3.9c0.2-0.3,0.5-0.5,0.8-0.7
		c0.1,0,0.2,0.1,0.3,0.1c0,0.3,0.1,0.6,0,0.9c-0.3,0.9-0.8,1.5-1.5,2.1c-2.1,1.8-4,3.8-5.2,6.2c-1,2.1-1.7,4.2-2.6,6.4
		c-2.2,5.1-2.7,10.5-2.4,16c0.2,2.9,0.7,5.7,1.7,8.5c0.6,1.6,1.3,3.1,2.5,4.3c3,3.1,5.5,6.6,8,10.1c1.3,1.8,2.7,3.6,4.7,4.8
		c0.8,0.5,1.6,0.9,2.5,1.3c2,0.9,3.7,2.1,5.1,3.8c2.2,2.8,4.5,5.6,6.8,8.3c1.1,1.4,2.4,2.6,4,3.8c-0.1-0.7-0.3-1.2-0.3-1.7
		c0-0.8,0-1.5,0.2-2.3c0-0.3,0.4-0.5,0.6-0.7c0.2,0.2,0.5,0.5,0.5,0.7c0.2,0.9,0.3,1.8,0.6,2.6c0.5,1.8,1.1,2.9,2.1,4
		c-0.1-1.3-0.8-2.5,0-3.9c0.1,0.3,0.3,0.5,0.3,0.7c0.4,0.9,0.7,1.9,1.1,2.8c0.9,2.2,2.8,3.4,4.5,4.8c1.1,0.9,2.2,2,3.3,3
		c0.7,0.7,1.1,1.6,1.4,2.6c0.8,2.9,0.6,5.8,0.2,8.7c-0.4,2.3,0.5,3.9,2.5,5c0.7,0.4,1.2,0.9,1.7,1.5c1.6,1.9,3.4,3.6,5.7,4.6
		c2.3,1,4.7,1.1,7.1,0.7c0.2,0,0.4-0.2,0.9-0.4c-1.6-0.3-3-0.6-4.3-0.9c-1.8-0.5-3.6-1-5.4-1.6c-1.6-0.5-2.8-1.6-3.6-3
		c-0.9-1.6-1.9-3-3.4-4.1c-0.6-0.4-0.9-1.1-0.5-2.1c0.2,0.4,0.3,0.7,0.4,0.8c0.3,0.3,0.6,0.8,0.9,1c1.1,0.5,1.9,1.3,2.6,2.4
		c0.2,0.4,0.5,0.8,0.7,1.2c0.8,1.2,1.7,2.1,3,2.6c3.8,1.5,7.6,2.4,11.7,2.5c2.9,0.1,5.6-0.7,7.7-2.8c0.2-0.2,0.3-0.4,0.6-0.7
		c-1,0.5-1.6,1.4-2.8,1.3c0.3-0.3,0.5-0.5,0.6-0.6c0.3-0.3,0.8-0.4,0.5-1c-0.1-0.1,0.2-0.4,0.3-0.6c0.2-0.5,0.5-0.9,0.6-1.4
		c0.4-1.8,0.9-3.5,1.8-5.2c0.1-0.2,0.3-0.3,0.4-0.5c1.5-1.7,2.7-3.6,3.7-5.7c0.3,1.3,0.3,1.3-0.6,3.4c0.7-0.4,1.1-1,1.5-1.7
		c0.1-0.2,0.2-0.5,0.3-0.7c0.2-0.2,0.5-0.3,0.7-0.2c0.2,0,0.4,0.3,0.4,0.5c0,0.4-0.1,0.8-0.1,1.4c0.4-0.6,0.7-0.9,0.8-1.3
		c1.2-2.8,1.9-5.6,0.3-8.6c-0.9-1.6-1.6-3.2-2.2-4.9c-0.3-0.9-0.4-2-0.5-3c-0.4-3.9-1-7.8-2.2-11.5c-1.2-3.8-2.4-7.5-3.7-11.3
		c-0.6-1.8-1.5-3.6-2.3-5.4c-1.4-3.3-2.5-6.8-3.3-10.3c-0.6-2.5-0.9-5-0.9-7.6c0.1-3.4,0.1-6.8,1.1-10.1c0-0.2,0-0.3,0.1-0.8
		c-0.5,0.9-0.8,1.4-1.1,2c-0.7-0.2-0.7-0.7-0.7-1.2c0-0.7,0.1-1.4,0.2-2c0.1-2.1,0.4-4.2,0.3-6.2c0-1.9-0.8-3.5-2.3-4.8
		c-1.6-1.4-2.8-3-3.9-4.8c-0.2-0.3-0.3-0.6-0.5-0.9c-0.2-0.4-0.5-0.8-0.8-1.1c-2.1-1.6-4-3.4-5.7-5.4c-0.3-0.3-0.5-0.6-0.7-0.9
		c-1.3-2.5-2.8-4.9-3.5-7.6c-0.7-2.6-1.8-4.9-3.2-7.2c0,0.2,0,0.5,0.1,0.7c1.4,3.6,2.6,7.3,4.2,10.8c1.9,4.2,3,8.5,3.1,13.1
		c0.1,4.2,0.1,8.3,0.1,12.5c0,3,0,6,0.6,9c0.7,3.7,1.9,7.2,3.8,10.4c2.1,3.6,3.3,7.4,4.3,11.4c0.1,0.4,0.1,0.8-0.1,1.2
		c-0.1-0.3-0.3-0.6-0.4-0.9c-0.7-3.4-2.2-6.3-4.2-9.1c-2-2.8-3.1-6-3.8-9.4c-1-4.4-1.4-8.8-0.9-13.3c0.6-6.3,0.1-12.6-1.4-18.8
		c-0.4-1.8-1.2-3.5-2-5.1c-2.2-4.7-4-9.5-5.3-14.5c-0.3-1.1-0.4-2.2-0.6-3.3c-0.5,0.5-0.4,1.1-0.3,1.6c0.3,1.8,0.7,3.5,1.1,5.2
		c0.8,4,1.8,8,2.5,12c0.5,2.9,0.2,5.9-0.1,8.9c-0.2,2.5-0.3,5-0.5,7.5c0,0.2,0,0.4-0.2,0.7c0-0.5-0.1-1.1-0.1-1.6
		c0-0.6-0.1-1.1,0-1.7c0.2-3.7,0.2-7.4-0.6-11.1c-0.8-3.7-1.3-7.5-2.1-11.2c-0.6-2.7-1.7-5.3-2.6-8c-1.3,1.3-2.6,2.5-3.9,3.6
		c-2.3,2-4.8,3.6-7.7,4.8c-1.8,0.7-3.6,1-5.4,1.2c-2.6,0.3-5.2,0.3-7.8,0c-1.6-0.2-3.1-0.7-4.5-1.5c-0.1,0-0.1-0.2-0.3-0.4
		c0.3,0,0.6,0,0.8,0c4.6,0.3,9.1,0.5,13.6-0.7c3.8-1,7.3-2.7,10-5.6c1.1-1.3,2.4-2.4,3.4-3.8c1.5-2.1,2.1-4,1.9-7.2
		c-1.3,0.4-1.4,0.5-1.3,1.7c0.1,1.4-0.3,2.7-0.9,3.9c-2.3,4.9-6.3,7.6-11.1,9.6c-4,1.6-8.2,1.7-12.4,1.7c-0.8,0-1.6-0.2-2.3-0.4
		c0-0.1,0-0.2,0-0.3c0.3,0,0.5-0.1,0.8-0.1c2-0.1,3.9-0.2,5.9-0.2c4.1-0.1,7.8-1.6,11.4-3.3c3.7-1.8,6-4.8,7.6-8.5
		c0.3-0.8,0.6-1.6,0.3-2.6c-1.1,1.1-2,2.3-3.2,3.2c-1.1,0.9-2.5,1.4-3.9,2.1c-0.1-0.6,0.2-0.9,0.5-1c2.5-1.2,4.2-3.3,6-5.2
		c0.8-0.8,1.7-1.5,2.6-2.3C312.8,101.6,313.2,101.3,313.7,101.1z M392,264.6c-3.1,1.1-6.3,1.6-9.7,1.2c-2-0.2-4-0.4-6-0.5
		c-1-0.1-2,0.1-3,0.1c-0.5,0-0.8,0.2-0.9,0.7c-0.5,2.2-1.1,4.4-1.7,6.9c0.7-0.4,1.2-0.6,1.7-1c1.7-1,3.4-1.9,5.3-2.5
		c4.5-1.5,9-3,13.4-4.5C391.4,265,391.7,264.7,392,264.6c0.3-0.1,0.6-0.1,0.9-0.2c4.3-1.6,8.2-3.9,11.4-7.2c1.3-1.3,2.1-2.9,2.5-4.6
		c0.2-0.6,0.1-1.4,0-2c-0.2-1.2-0.8-1.5-2.2-1.7c-0.1,0.4-0.2,0.9-0.4,1.3c-0.3,0.8-0.5,1.7-0.9,2.4c-1.1,1.9-2.2,3.8-3.5,5.6
		c-1.1,1.6-2.5,3-4.2,4C394.5,263,393.2,263.8,392,264.6z M206.7,44.8c0.1,0.1,0.2,0.1,0.3,0.2c0.8-0.7,1.6-1.3,2.4-2
		c3.1-2.6,6.5-4.6,10.1-6.4c2.6-1.3,5.3-2.4,8-3.8c6.4-3.2,13.3-4.8,20.2-6c4.7-0.8,9.5-1.1,14.4-1c4.5,0.1,9,0.5,13.5,0.9
		c1.2,0.1,2.5,0.2,3.7,0.2c4.2-0.1,8.4,0.1,12.6,0.6c1.3,0.2,2.6,0.3,3.9,0.5c-0.3-0.4-0.6-0.6-1-0.8c-4.2-1.7-8.6-3-13-4.1
		c-7.5-1.8-15.1-2.4-22.8-2.5c-6.3,0-12.6,0.4-18.8,1.8c-5.5,1.2-10.9,2.6-16,5c-0.3,0.1-0.6,0.2-0.9,0.3c0-0.1-0.1-0.2-0.1-0.2
		c1.7-0.9,3.3-1.8,5-2.5c8.5-3.6,17.5-5.4,26.7-5.7c5.1-0.2,10.3,0,15.4,0.5c4.8,0.5,9.6,1.3,14.3,2.6c4.4,1.2,8.6,2.7,12.7,4.6
		c0.3,0.2,0.7,0.3,1,0.4c0.1-0.1,0.1-0.2,0.2-0.3c-0.3-0.3-0.7-0.5-1-0.8c-2.6-2.4-5.3-4.7-7.8-7.2c-4.4-4.2-9.3-7.7-14.5-10.8
		c-2.3-1.3-4.6-2.6-7.1-3.5c-3-1-5.9-1.8-9-2.2c-5.3-0.8-10.6-0.9-16,0.3c-5.6,1.3-10.7,3.6-15.2,7.1c-3.8,3-6.9,6.7-10.4,10
		c-0.2,0.2-0.4,0.6-0.4,0.9c-0.2,1.7-1.2,2.9-2.8,3.5c-1,0.4-1.6,1.1-2.1,2c-1.7,2.8-2.8,5.8-3.7,8.9c-0.2,0.9-0.4,1.7-0.6,2.6
		c-0.2,1.2-0.4,2.4-0.6,3.6C207.2,42.8,207,43.8,206.7,44.8z M182,171.5c-2.6-0.2-4.6-1.3-6.5-2.9c-0.8-0.7-1.5-1.5-1.9-2.5
		c-0.9-2.1-1.2-4.3-1.2-6.6c0-1.5,0.1-3.1,0.9-4.5c1-1.9,2.1-3.8,3.7-5.3c2.2-2.2,4.9-3.7,7.7-5.2c3.1-1.7,6.6-2.3,9.9-3.2
		c1.2-0.3,2.4-0.6,3.6-0.7c5.2-0.5,10.5-0.2,15.7,0.2c3.3,0.2,6.5,0.6,9.8,0.9c1.7,0.2,3.4,0.3,5.1,0.4c1.4,0.1,2.9,0.1,4.3,0.1
		c3.3,0,6.5,0.3,9.7-0.7c4-1.2,7.7-2.8,11.1-5.1c4-2.7,7.4-6.1,10.5-9.9c1.2-1.5,2.7-2.9,3.7-4.5c2.2-3.3,4-6.8,5.6-10.5
		c1.1-2.6,2.6-5,4.2-7.3c2.1-3,4.7-5.2,8.3-6c1.6-0.4,3.2-0.5,4.8,0.2c0.3,0.1,0.6,0.2,0.9,0.3c0-0.1,0.1-0.2,0.1-0.3
		c-0.6-0.3-1.2-0.6-1.8-0.8c-5.1-1.9-9.2-0.2-12.2,4c-1.2,1.7-1.9,3.7-2.9,5.5c-1,1.9-1.8,3.9-2.9,5.7c-2,3.4-4.4,6.5-7.1,9.4
		c-1.8,2-3.6,4-5.6,5.7c-3.9,3.3-8.4,5.8-13,8c-1.8,0.8-3.6,1.6-5.5,1.9c-3.7,0.6-7.4,1.2-11.1,1.2c-3.9,0-7.8,0.1-11.7,0.2
		c-5.2,0.1-10.5-0.3-15.7,0.3c-0.3,0-0.5,0-0.8,0c-0.3,0-0.5-0.1-0.7-0.1c2.6-0.5,5.2-0.8,7.7-1c3.5-0.2,7.1-0.2,10.6-0.4
		c5.8-0.2,11.6-0.2,17.3-0.9c2.9-0.3,5.6-0.9,8.2-2.1c2.4-1.1,4.8-2.3,7.1-3.7c3.3-2,6.6-4.1,9.3-6.9c1.7-1.8,3.4-3.6,5-5.4
		c2.1-2.3,4-4.8,5.4-7.6c1.6-3,2.9-6.2,4.1-9.3c0.5-1.3,1.2-2.5,2.3-3.5c2.1-2.1,4.6-3.4,7.6-3.8c-3.5-0.6-6.9-0.2-10.2,0.9
		c-2.1,0.7-3.9,1.8-5.8,3c-3.4,2.2-6.8,4.5-9.6,7.6c-3.4,3.7-7.1,7.1-10.7,10.6c-4.5,4.3-10,6.7-15.8,8.5c-3.9,1.2-7.9,1.5-11.9,1.5
		c-5.7,0-11.3,0.2-16.9,1.1c-3,0.5-6.1,0.8-9,1.6c-4.8,1.2-9.1,3.5-12.8,6.9c-1,0.9-1.9,1.8-2.8,2.7c0.2,0.1,0.3,0.1,0.3,0
		c0.4-0.3,0.8-0.5,1.1-0.8c3.3-2.4,6.9-4.3,10.7-5.6c4.3-1.5,8.8-2.6,13.4-3.2c4-0.5,8-0.8,11.9-1.1c5.3-0.5,10.6-1.3,15.8-2.3
		c4.6-1,9.2-1.7,13.4-4c-0.1,0.2-0.3,0.4-0.5,0.5c-1.7,1.2-3.4,2.2-5.4,2.8c-4.7,1.5-9.5,2.8-14.4,3.5c-3.2,0.5-6.3,0.9-9.5,1.3
		c-4.1,0.5-8.1,0.7-12.2,1.4c-6.5,1.1-12.8,2.8-18.6,6.1c-5.5,3.2-10.3,7-13.6,12.6c-1.6,2.8-3,5.6-3.3,8.9c-0.2,2.7-0.3,5.3,1,7.7
		c0.6,1.1,1.1,2.1,1.7,3.1c0.8,1.4,2,2.4,3.5,3.1c0.9,0.4,1.8,0.7,2.7,0.4C179.6,173.2,180.8,172.4,182,171.5z M306.7,89.8
		c-0.5-0.9-0.5-1-1.3-1.3c-1.3-0.4-2.7-0.9-4.1-1c-1.8-0.2-3.5-0.4-5.3-0.9c-0.6-0.2-1.4-0.2-2-0.1c-4.4,0.8-8.7,0.5-13.1-0.2
		c-2.9-0.4-5.8-0.5-8.8-0.2c-1.8,0.2-3.6,0.2-5.5,0.2c-1.3,0-2.6-0.1-4-0.1c-6.6-0.1-13.2-0.5-19.8-1c-3.8-0.3-7.6-0.5-11.5,0
		c-2.7,0.3-5.4,0.7-8.1,1.1c-1,0.2-2,0.5-2.9,0.8c-1.5,0.5-3,1.2-4.6,1.6c-2.3,0.6-4.6,1.1-7,1.6c-3.5,0.7-7,1.5-10.5,2.2
		c-2.5,0.5-4.9,1-7.4,1.2c-3.6,0.3-7.3,0.3-11,0.3c-1.7,0-3.4-0.3-5-0.9c-2.9-0.9-5.7-2-8.5-3.1c-1.5-0.6-3-1.3-4.5-2
		c-2.1-1-4.2-1.9-6.2-2.9c-1.4-0.7-2.7-1.5-4.1-2c-1.4-0.5-2.8-0.6-4.2-0.9c-2.2-0.4-4.3,0.1-6.3,1c-0.5,0.3-1.3,0.7-1.4,1.2
		c-0.3,1.3-0.6,2.7-0.3,3.9c0.4,1.7,1.1,3.3,2.4,4.6c1,1.1,1.9,2.2,2.9,3.3c0.2,0.2,0.4,0.3,0.5,0.4c-0.3-1.2-0.7-2.5-0.8-3.7
		c-0.2-2.8,1.1-4.8,3.6-6c1.7-0.7,3.5-0.7,5.3-0.3c4.2,1,8.1,2.5,12,4.2c1.5,0.6,3.1,1.1,4.7,1.7c0.8,0.3,1.5,0.5,2.3,0.7
		c4.2,1.2,8.2,3.1,12.7,3.2c0.1,0,0.2,0,0.3,0c2.6,0.7,5.2,0.4,7.7,0.2c1-0.1,2-0.5,3.1-0.8c0.2,0,0.4-0.1,0.9-0.1
		c-0.5,0.6-0.7,1-1,1.3c-0.5,0.4-1.1,0.8-1.7,1.2c-2.2,1.4-4.3,2.9-6.5,4.3c-0.2,0.1-0.4,0.2-0.8,0.4c2.2-2.4,4.9-3.6,7.1-5.5
		c-1.3,0.2-2.7,0.4-4,0.6c-2.7,0.3-5.4-0.4-8.1-0.7c-0.5-0.1-1.1-0.2-1.6-0.4c-4.2-1.3-8.5-2.5-12.7-3.8c-0.7-0.2-1.4-0.5-2.1-0.8
		c-4-1.7-8.2-3.2-12.5-4c-0.9-0.2-1.8-0.2-2.7-0.1c-1.4,0.2-2.7,0.8-3.3,2.2c-0.8,1.9-0.6,3.8,0.7,5.4c1.7,2.2,4,3.8,6.5,5
		c2.4,1.1,4.9,1.8,7.4,2.2c1.6,0.3,3.2,0.4,4.8,0.6c3.8,0.4,7.6,0.6,11.5,0.1c0.7-0.1,1-0.3,1.4-0.9c0.5-0.7,1.2-1.4,1.8-1.9
		c0.6-0.5,1.3-0.4,1.8,0.1c0.3,0.2,0.4,0.5,0.2,0.7c-0.7-0.1-1.2-0.4-1.6-0.3c-0.9,0.4-1.6,1.1-2.2,2.2c0.7-0.1,1.2-0.1,1.7-0.2
		c0.8,0,1.7-0.1,2.5-0.1c0.2,0,0.4,0.2,0.6,0.3c-1.6,0.1-3,0.3-4.5,0.4c-0.7,0-1.1,0.3-1.3,1c-0.5,1.6-0.6,3.3-0.4,4.9
		c0.1,0.8,0.4,1.7,1.1,2.3c0.3-0.3,0.5-0.6,0.8-1c0.2,0.8-1.1,1.5-0.1,2.2c0.9-1.2,1.6-2.5,2.6-3.5c2-2,4.1-4,6.2-5.9
		c6.6-5.9,14.5-8.8,23.2-10.1c4.5-0.7,8.9-0.6,13.4-0.6c3.7,0,7.5,0.3,11.2,0.6c6.4,0.6,12.8,1.7,19.1,3c0.6,0.1,1.1,0.1,1.7-0.3
		c1.2-0.8,2.4-1.6,3.7-2.3c3.2-1.8,6.5-3.2,10.1-4.4c6.8-2.2,13.5-2.4,20.3,0c0.3,0.1,0.7,0.2,1,0.2c3.2,0.2,6,1.2,8.5,3.3
		C302.8,92.4,304.7,91.2,306.7,89.8z M355.7,167.5c0.1-0.1,0.1-0.1,0.2-0.2c0.2,0.5,0.6,0.9,0.7,1.4c0.1,0.3,0.1,0.8-0.1,1
		c-0.2,0.2-0.8,0.2-1,0.1c-0.7-0.4-1.5-0.9-2-1.5c-1.3-1.5-1.9-3.3-2.4-5.2c-0.3-1.4-0.8-2.9-1.1-4.3c-0.1-0.6-0.5-0.8-1.1-0.9
		c-0.9-0.1-1.8-0.4-2.8-0.5c-1-0.1-2.1,0-3.2,0c-0.1,0.7-0.3,1.3-0.4,1.9c-0.2,1.1-0.3,2.2-0.5,3.3c-0.6,3-0.9,6-0.3,9
		c0.5,2.6,1,5.2,1.8,7.7c2.1,6.3,4.4,12.6,6.7,18.9c0.3,1,0.4,1,1.4,0.9c4.2-0.4,8.5-0.8,12.6-1.7c5-1,9.6-3,13.4-6.4
		c4.6-4.1,6.8-9.2,6.5-15.3c-0.2-4.8-2-9.1-4.6-13.1c-1.3-2.1-1.4-2.1-3.9-2.1c-1.6,0-3.2,0-4.8,0.1c0.3,0.5,0.6,0.7,0.9,0.9
		c3.8,2.3,6.5,5.5,8.2,9.5c1,2.2,0.9,4.4,0,6.6c-0.2,0.6-0.6,1-1.5,1.3c0.2-0.4,0.3-0.7,0.4-0.9c0.1-0.3,0.3-0.5,0.3-0.8
		c0.8-3.7-0.2-7-2.6-9.9c-2.2-2.7-5-4.6-8-6.3c-0.5-0.3-1.2-0.4-1.8-0.5c-1.8-0.2-3.7-0.2-5.5-0.4c-2.2-0.3-4.4-0.9-6.6-1.3
		c-1.1-0.2-2.1-0.4-3.3-0.6c0.4,2.9,1,5.6,2.1,8.2c0.4,0.9,1,1.7,1.6,2.5c0.3,0.4,0.7,0.8,1.4,0.4
		C356.2,168.7,355.9,168.1,355.7,167.5z M363.9,137.4c-1.6-0.3-3.3-0.5-4.9-0.8c-1.7-0.3-3.5-0.5-5.1-1c-3.5-1.1-7.1-2.1-10.5-3.6
		c-5.1-2.3-9.8-5-14.1-8.6c-2.9-2.5-5.5-5.3-7.9-8.3c-0.6-0.8-1.1-1.6-1.3-2.6c0.1,0.1,0.2,0.1,0.3,0.1c1.4,2.3,3.4,4.1,5.2,6.1
		c2.7,2.9,5.9,5.3,9.3,7.3c1.1,0.6,2.1,1.3,3.2,1.9c5.1,2.7,10.6,4.4,16.1,6c0.3,0.1,0.7,0.2,1,0.2c4.9,0.6,9.7,1.8,14.7,1.9
		c3,0.1,5.9,0.4,8.9,0.6c1.9,0.1,3.8,0.2,5.7,0.5c3,0.5,5.9,1.1,8.9,1.6c2.6,0.4,4.9,1.4,7.2,2.4c0.3,0.1,0.6,0.3,0.9,0.4
		c0.1-0.1,0.1-0.2,0.2-0.2c-0.9-0.7-1.8-1.4-2.7-2c-2.5-1.6-5.1-2.9-7.9-3.8c-3.1-1-6.1-2.1-9.2-2.9c-2-0.5-4-1-5.9-1.9
		c-0.3-0.1-0.6-0.2-1-0.3c-2-0.3-4-0.5-5.9-0.8c-4.6-0.9-9.1-1.6-13.5-3.2c-2.1-0.8-4.2-1.7-6.1-2.8c-3.5-2-6.7-4.4-9.9-7
		c-2.6-2.1-5.3-4-8-6c-1.7-1.2-3.4-2.4-5.1-3.6c-2.8-2-5.9-3.5-9.1-4.7c-1-0.4-1.8-0.2-2.7,0.3c0.1,0.2,0.1,0.3,0.1,0.4
		c1.2,2.4,2.5,4.7,3.7,7.1c0.4,0.7,0.4,1.6,0.8,2.3c1.6,3.1,3.2,6.1,5.7,8.7c3,2.9,6,5.6,9.7,7.6c3.3,1.8,6.8,3.5,10.2,5.3
		c0.3,0.2,0.6,0.3,0.9,0.4c2.9,1,5.7,2,8.7,2.6C357.6,137.3,360.7,137.7,363.9,137.4z M153,224.6c-2.6,4.2-4.9,8.5-6.6,13.1
		c-1.2,3.4-2,7-2,10.6c-0.1,5.7,0,11.3,0,17c0,1,0.2,2.1,0.7,3.2c0.3-0.6,0.4-1,0.6-1.5c1.2-3.2,2.7-6.3,4.6-9.2
		c1.3-1.9,2.7-3.6,4.5-5c1.3-1,2.8-1.8,4.5-1.9c0.7,0,1.1-0.3,1.6-0.7c0.8-0.7,1.5-1.5,2.4-2.1c1-0.7,1.6-1.6,2-2.7
		c2.8-6.6,5.8-13.1,9.1-19.4c0.3-0.6,0.4-1.1,0.3-1.7c-0.1-1.6-0.2-3.2-0.3-4.8c0-0.2-0.1-0.4-0.1-0.7c-1.4,0.3-2.5,1.1-3.7,1.8
		c-2.7,1.7-5.4,3.6-8.2,5.1c-2.5,1.4-5.2,1.7-7.8,0.1C154.2,225.6,153.7,225.1,153,224.6z M355.5,139.2c0.8,1.2,4.8,4.5,6.5,5.4
		c7,3.7,13,8.4,17.8,14.7c0.5,0.6,0.9,0.8,1.6,0.6c2.9-0.5,5.8-0.8,8.7-1.3c1.3-0.2,2.7-0.5,3.9-1.1c2.2-1,4.3-2.2,6.4-3.4
		c0.7-0.4,1.2-0.9,1.7-1.5c0.6-0.7,1.2-1.6,1.1-2.6c-0.2-2-0.9-3.8-2.7-5c-1.2-0.8-2.4-1.4-3.7-1.9c-2.9-1.1-6-1.6-9.1-2
		c-2.1-0.3-4.1-0.5-6.2-0.7c-2.2-0.2-4.3-0.3-6.5-0.3c-3.1-0.1-6.3,0-9.4-0.1C362.3,139.7,358.9,139.4,355.5,139.2z M347.9,319.8
		c0.1,0,0.1,0.1,0.2,0.1c0.2-0.2,0.4-0.3,0.6-0.5c2.3-2,4.6-3.9,7.5-5c0.4-0.1,0.8-0.6,0.9-1c0.7-1.7,1.4-3.4,2.1-5.1
		c0.2-0.4,0.2-0.8,0.3-1.2c0.1-0.1,0.3-0.3,0.4-0.3c0.1,0,0.3,0.3,0.3,0.4c0,0.2-0.1,0.4-0.1,0.6c-0.3,0.8-0.6,1.6-0.9,2.4
		c-0.4,0.9-0.7,1.9-1.2,3c1.9-0.9,3.3-2,4.7-3c2.9-2.2,5-5.1,6.5-8.4c1.1-2.3,1.8-4.8,1.9-7.4c0.2-2.8,0.8-5.5,1.6-8.1
		c0.2-0.7,0.6-1.4,1-2c0.9-1.4,1.9-2.8,2.9-4.2c0.2-0.2,0.4-0.5,0.4-0.8c0.3-2,1.4-3.7,2.6-5.2c2.1-2.6,4.6-4.4,8-4.9
		c0.7-0.1,1.4-0.3,2.1-0.4c2.9-0.5,5.5-1.9,8.2-3c2.3-1,4.5-2.1,6.3-3.8c2.9-2.9,5.1-6.2,5.9-10.2c0.5-2.7-0.9-5.8-3.2-7.1
		c-0.5-0.3-1-0.4-1.6,0c0,1,0,2,0,3c2.4,0.9,3.4,2.1,3.3,4.3c-0.1,1.9-0.7,3.8-1.9,5.2c-1.9,2.3-4.1,4.3-6.7,5.8
		c-3.6,2.1-7.5,3.6-11.6,4.6c-3.7,0.9-7.5,2-11.2,3.2c-1.3,0.4-2.4,1-3.6,1.5c-0.8,0.4-1.6,0.9-2.5,1.3c-0.6,0.3-0.9,0.8-1.2,1.4
		c-1.4,3.1-2.9,6.2-4.3,9.2c-1.1,2.3-2.3,4.6-3.4,6.9c-1.1,2.2-2.1,4.5-3.2,6.7c-1.9,3.7-3.9,7.3-5.8,11c-1.2,2.3-2.2,4.6-3.3,6.9
		C349.1,317,348.5,318.4,347.9,319.8z M196.6,56.4c-1.2-0.3-2.2-0.6-3.2-0.8c-3.4-0.8-6.8-1.7-10.3-1.8c-3.1-0.1-6,0.6-8.5,2.6
		c-0.9,0.7-1.9,1.4-2.5,2.3c-2.5,4.1-1.8,9.2,1.4,12.5c2,2.1,4.3,3.9,7,5.1c3.5,1.6,7.2,2.7,11,3.6c0.2,0,0.4,0,0.7,0
		c-0.3-0.9-0.6-1.6-0.8-2.4c-0.2-1-0.5-2.1-0.5-3.1c0.1-2.9,0.5-5.9,1.4-8.7C193.4,62.6,194.4,59.3,196.6,56.4z M234,119.3
		c0-0.1-0.1-0.2-0.1-0.3c0.3-0.1,0.5-0.2,0.8-0.3c2.7-0.9,5.2-2.3,7.5-4.1c1.8-1.5,3.6-3,5.3-4.6c1.7-1.6,3.2-3.3,4.9-4.8
		c3.9-3.7,7.8-7.5,12.6-10.2c0.2-0.1,0.4-0.3,0.5-0.4c-0.2-0.1-0.4-0.1-0.5,0c-2.6,1.3-5.1,2.7-7.5,4.4c-1,0.8-2,1.6-3.1,2.3
		c-3.9,2.5-7,5.8-10.3,8.9c-1.9,1.8-3.9,3.5-6,5.1c-2.6,2-5.6,3.4-8.8,4.3c-3.4,1-7,1.6-10.5,2.1c-2.4,0.3-4.8,0.8-7.2,1.1
		c-2.1,0.3-4.1,0.5-6.2,0.7c-2.5,0.2-5,0.5-7.5,0.5c-2.8,0-5.6-0.2-8.4-0.3c-0.9,0-1.9,0-2.8-0.1c-2.8-0.3-5.5,0.1-8.1,1.2
		c-2.1,0.9-4.3,1.7-6.4,2.7c-2.8,1.2-5.2,2.9-7,5.4c-1.9,2.6-2.9,5.6-3.5,8.7c-0.2,1,0,1.9,0.6,3.1c0.1-0.5,0.1-0.7,0.1-1
		c0.2-1.3,0.3-2.5,0.5-3.8c0.6-3.6,2.7-6.3,5.8-8.2c3.3-2,6.8-3.2,10.6-3.6c3.9-0.4,7.9-0.6,11.9-0.5c1.1,0,2.2,0.1,3.3-0.1
		c2-0.3,3.9-0.7,5.9-1.1c6.5-1.3,13.2-1.7,19.8-1.7c5.5,0,11-0.4,16.2-2.2c4.5-1.6,8.6-3.9,12-7.3c0.8-0.8,1.6-1.5,2.4-2.3
		c1.9-1.9,3.8-3.9,5.8-5.8c1.7-1.7,3.3-3.5,5.1-5c2.8-2.4,5.8-4.5,8.9-6.4c5-3,10.3-3.7,16-2.8c0.3,0,0.5,0.1,0.8,0.1
		c-0.2-0.2-0.3-0.4-0.5-0.4c-1.9-0.3-3.8-0.7-5.7-0.7c-2.9,0-5.8,0.3-8.6,0.8c-0.9,0.1-1.7,0.5-2.5,0.9c-3.8,2.1-7.4,4.5-10.7,7.4
		c-2.9,2.6-5.7,5.2-8.5,7.9c-3.5,3.3-7.3,6-11.5,8.2C237.5,118.1,235.7,118.6,234,119.3z M199.3,145.2
		C199.3,145.2,199.3,145.2,199.3,145.2c-0.3-0.1-0.6,0-0.8,0c-5.3,0.2-10.3,1.4-14.9,4c-2.8,1.6-5.3,3.4-6.4,6.8
		c-1.2,4-0.8,7.6,1.8,11c1.1,1.4,2.4,2.4,4.4,2.3c1.8-0.1,3.6-0.1,5.3-1c4.1-2.1,8.2-4.2,12.4-6.1c5.7-2.6,10.8-5.9,15.3-10.2
		c0.7-0.7,1.5-1.4,2.2-2.2c0.8-0.9,1.6-1.9,2.1-3.1c-1.8-0.2-3.3-0.4-4.9-0.6c-1.1-0.1-2.1,0.2-3,0.8c-0.8,0.5-1.5,1.1-2.2,1.7
		c-4,3.6-8.3,6.8-13.2,9.1c-1.7,0.8-3.4,1.4-5.2,1.5c-2.2,0.2-3.9-0.7-5.2-2.4c-1-1.3-1.1-3.1-0.1-4.5c0.4-0.5,0.8-1,1.3-1.4
		c2.1-1.7,4.4-3.1,6.9-4C196.4,146.3,197.9,145.8,199.3,145.2z M150.3,335.1c0.3,2,0.5,3.8,0.8,5.6c0.5,2.9,1.3,5.6,2.6,8.3
		c0.7,1.3,1.6,2.2,3,2.8c2.2,1,4,0,4.9-1.7c1-1.9,1.6-4,1.9-6.2c0.3-2.4,0-4.6-1.2-6.8c-3.1-5.5-5.6-11.3-7.7-17.2
		c-0.3-0.8-0.7-1.2-1.6-1.4c-4.1-0.9-6.9-3.3-8.2-7.5c-1.1-3.5-2-7-2.2-10.7c-0.1-2.2-0.2-4.3-0.3-6.5c0-1.1,0.2-2.3,0.2-3.4
		c0-2.1,0.2-4.1,0.6-6.1c0.1-0.3,0.1-0.7,0.1-1c0.4-2,0.7-4.1,1.2-6.1c1.5-6.1,4.7-11.5,8-16.7c1.6-2.5,3.4-4.8,5.2-7.1
		c0.2-0.3,0.5-0.7,0.9-1.2c-1.7,0.5-2.9,1.3-4.1,2.2c-1.9,1.6-3.4,3.7-4.7,5.9c-1.7,2.8-3,5.8-4,8.8c-4.6,13.7-5.8,27.8-3.8,42.1
		c0.6,4.5,2,8.8,4.3,12.7c0.4,0.7,0.8,1.5,1.1,2.3c0.3,0.8,0.7,1.2,1.5,1.2c3,0.1,6.1,3.9,6.3,6.7c0.1,1.5,0.1,3.1,0.2,4.6
		c0,0.3-0.1,0.6-0.2,0.9c-0.1,0.1-0.2,0.1-0.3,0.2C154.7,337,152.9,335.8,150.3,335.1z M234.1,46c-0.3,0-0.4,0-0.5,0.1
		c-0.3,0.1-0.6,0.3-0.9,0.5c-3.6,1.8-6.7,4.3-9.6,7.1c-2.8,2.7-4.1,6.2-4.6,9.9c-0.5,3.3,0.6,6.3,2.3,9.1c1.2,1.9,2.8,3.2,4.8,4
		c1.3,0.5,2.5,1.1,3.7,1.6c0.7,0.3,1.4,0.5,2.1,0.7c5.2,1,10.5,1.3,15.7,0.8c0.7-0.1,1.4-0.2,2-0.3c-0.3-0.4-0.7-0.5-1-0.7
		c-3.3-1.3-6.4-2.9-9.2-4.9c-2.6-1.8-5-3.7-6.8-6.3c-0.9-1.3-1.9-2.6-2-4.2c-0.2-1.8-0.6-3.5-0.7-5.3c-0.3-3.7,0.7-7,3-9.9
		C233,47.4,233.5,46.7,234.1,46z M357.8,215c0.5,0.6,1.2,1.3,1.7,2c0.9,1.2,2.1,1.6,3.4,1.7c1.9,0,3.8,0.1,5.7-0.1
		c5.7-0.6,11.5-1.3,17.2-2.1c3.1-0.4,6.2-0.3,9.3,0.4c1.8,0.4,3.5,1,5,2c3.4,2.4,5,6.4,4,10.1c-0.5,1.7-1.3,3.4-2,5.1
		c-0.5,1-1.1,1.9-1.7,2.8c0.7,0.6,0.7,0.6,1.2,0.3c0.8-0.5,1.6-1.1,2.5-1.6c3.2-1.9,5.3-4.7,6.8-8c0.5-1.1,0.8-2.4,1-3.7
		c0.2-1.7-0.1-3.4-1.1-4.9c-2-3-4.6-5.1-8-6.3c-5-1.7-10.1-2-15.3-1.4c-4,0.5-8,1.4-12,2.2C369.6,214.9,363.7,215.8,357.8,215z
		 M340.6,327.9c0.3-0.5,0.5-0.9,0.7-1.4c5.3-11.4,10.9-22.6,16.5-33.8c2.3-4.7,4.5-9.5,6.7-14.2c0.2-0.4,0.3-0.8,0.5-1.2
		c-0.4,0-0.5,0.1-0.7,0.2c-2.6,2.2-5.3,4.4-7.8,6.8c-3.5,3.3-6.3,7.2-8.8,11.4c-2.7,4.5-5.3,9-6.5,14.2c-0.2,0.9-0.6,1.9-1,2.7
		c-0.7,1.5-1.3,3-1.3,4.6c0,1.6-0.1,3.1,0,4.7C338.8,324,339.3,326,340.6,327.9z M281.1,84.9c0.3,0.1,0.5,0.1,0.6,0.1
		c6.2,0.4,12.3-0.4,18.3-1.9c1.9-0.5,3.8-1,5.7-1.4c3.4-0.6,6.8-0.6,10.2-0.2c0.7,0.1,1.3,0,1.9-0.4c1.6-1.1,3.5-1.8,5.4-2.2
		c1.1-0.3,2.4-0.3,3.5-0.2c1,0,1.8,0.6,2.2,1.5c0.6,1.8,0.5,3.5-0.7,5.1c-0.2,0.2-0.3,0.5-0.6,0.9c1.3,0.3,2.3,0.8,3,1.8
		c1.8,2.4,1.4,5.8-0.9,7.8c-0.8,0.7-1.7,1.1-2.5,1.7c-0.3,0.2-0.5,0.3-0.8,0.5c1.8,0.3,3.5,0.2,5.1-0.6c1.2-0.6,2.4-1.2,3.6-1.9
		c1.7-0.9,2.7-2.4,2.7-4.3c0-1.4-0.1-2.8-0.2-4.2c-0.1-1.7-0.8-3.3-1.9-4.6c-2.6-3.3-6.1-4.9-10.1-5.7c-2.6-0.5-5.3-0.6-8-0.6
		c-3.5,0-6.9,0.4-10.2,1.3c-2.2,0.6-4.3,1.3-6.5,1.9c-3.4,0.9-6.7,1.8-10.1,2.7c-3.1,0.9-6.2,1.8-9.3,2.7
		C281.4,84.6,281.3,84.7,281.1,84.9z M162,253.4c-0.4,0.2-0.6,0.3-0.8,0.5c-2.3,2-4.5,4.2-6.1,6.8c-2.3,3.9-4.6,7.9-6.3,12.1
		c-1.2,3-2.3,6.1-2.8,9.3c-0.7,4.9-0.9,9.7-0.1,14.6c0.4,2.7,1.1,5.2,2.6,7.5c0.8,1.2,1.9,2.3,2.9,2.7c0-0.1,0-0.3,0-0.4
		c-0.2-3.7-0.5-7.4-0.6-11.1c-0.2-6.4,0.5-12.7,2.7-18.7c2.6-7.3,5.4-14.6,8.1-21.9C161.7,254.4,161.8,254,162,253.4z M345.5,137.7
		c0,0-0.1,0.1-0.1,0.1c0.2,0.3,0.3,0.7,0.5,1c1.9,2.7,3.7,5.5,5.6,8.2c2.9,4,6.4,7.3,10.7,9.7c1.8,1,3.7,1.8,5.5,2.7
		c1.3,0.7,2.7,0.9,4.2,0.9c1.6,0,3.1-0.1,4.7-0.1c0.3,0,0.5-0.1,1-0.1c-0.3-0.4-0.4-0.6-0.6-0.8c-3.8-4.4-8.1-8.1-13.3-10.9
		c-2.5-1.3-5.1-2.6-7.6-3.9c-3.5-1.7-6.9-3.6-9.8-6.2C346,138.1,345.7,137.9,345.5,137.7z M390,113.2c-0.2,0.1-0.2,0.1-0.2,0.2
		c-0.2,0.4-0.5,0.8-0.7,1.2c-2.2,3.8-5.4,6.3-9.6,7.6c-1.7,0.5-3.6,0.9-5.4,1.1c-4.4,0.5-8.7,0.4-13.1-0.6
		c-5.4-1.2-10.6-2.9-15.5-5.4c-0.7-0.4-1.5-0.6-2.2-0.9c0,0.1-0.1,0.2-0.1,0.2c1.1,0.8,2.2,1.7,3.4,2.5c2.3,1.7,4.8,3.1,7.3,4.5
		c2,1.2,4.2,1.9,6.4,2.3c2.7,0.5,5.5,0.9,8.2,1.5c3.3,0.7,6.6,0.8,9.9,0.4c1.9-0.2,3.6-0.7,5.4-1.5c4.2-1.9,6.5-5.2,7.3-9.7
		C391.2,115.3,390.9,114.2,390,113.2z M367.4,228.9c-0.1,0-0.1,0.1-0.2,0.1c0.4,0.9,0.7,1.9,1.1,2.8c0.1,0.2,0.3,0.3,0.5,0.4
		c1.7,1,3.3,2.1,5,3.1c2.8,1.6,5.3,3.7,7.2,6.4c0.2,0.2,0.4,0.4,0.7,0.5c0.5,0.2,1,0.2,1.5,0.3c2.1,0.3,4.2,0.2,6.3-0.3
		c3.1-0.6,6.1-1.5,8.9-3c0.3-0.2,0.6-0.4,1-0.6c-1.1-1.3-2.4-1.9-3.9-2.3c-6.5-1.6-13.1-2.8-19.6-3.9c-2.7-0.5-5.1-1.4-7.5-2.9
		C368.1,229.3,367.8,229.1,367.4,228.9z M164.7,196.7c0.1,0,0.1,0,0.1,0c0.2-0.1,0.3-0.3,0.5-0.4c4.4-4,9.2-7.6,14.4-10.6
		c2.9-1.7,5.9-3.2,9.2-4c0.9-0.2,1.9-0.4,2.9-0.3c1.8,0.1,2.4,1.2,2,2.9c-0.1,0.4-0.2,0.7-0.3,1.4c0.5-0.3,0.7-0.5,1-0.7
		c0.4-0.3,0.7-0.6,1-0.9c2.7-2.7,4.6-6,6.7-9.1c0.6-0.9,1-1.8,1.6-2.8c-0.3,0-0.5,0-0.6,0.1c-2.5,1.5-5.4,2.3-8.2,3.2
		c-6,2.1-11.8,4.7-17.2,8c-5.4,3.2-9.7,7.6-13,12.9C164.7,196.5,164.7,196.6,164.7,196.7z M158.9,209.6c0.3-0.3,0.6-0.5,1-0.8
		c3-2.5,5.8-5.2,9.1-7.4c3.9-2.6,7.8-5.2,11.6-7.9c1.5-1,2.9-2.2,4.2-3.5c0.6-0.5,1.2-1.3,0.7-2.1c-0.4-0.8-1.4-0.8-2.2-0.7
		c-1.9,0.5-3.9,0.8-5.6,1.7c-5,2.6-9.4,6-13.4,9.9C161.3,201.8,159.9,205.6,158.9,209.6z M364,34.7c0.5-0.8,0.6-1.7,0.5-2.5
		c-0.3-2.4-1.4-4.3-3.3-5.9c-1.9-1.6-3.9-2.8-6.1-3.9c-7-3.4-14.4-4.5-22.1-4c-0.4,0-0.7,0.1-1.1,0.2c0.1,0.1,0.1,0.2,0.2,0.3
		c0.4,0.2,0.9,0.4,1.3,0.5c4.8,1.8,9.6,3.4,14.3,5.6c5.1,2.4,10.1,5,14.6,8.3C362.8,33.7,363.4,34.2,364,34.7z M376.2,109.1
		c0.6-1.1,1.3-2.1,1.7-3.2c0.7-1.9,0.9-3.9-0.2-5.8c-1.7-2.9-3.9-5.2-6.9-6.6c-2.9-1.4-6-2.5-9.1-3.3c-1.7-0.4-3.4-0.6-5-0.8
		c-1.5-0.2-3-0.5-4.6-0.8c-1,2.4-2,4.7-3,7.2c0.4-0.1,0.6-0.1,0.7-0.1c5.4-1.3,10.9-1.5,16.3,0.1c3.7,1.1,6.9,2.9,8.8,6.4
		C376.2,104.2,377,106.5,376.2,109.1z M188.3,122.3c0,0.1,0,0.2,0.1,0.4c1.5,0,2.9,0,4.4,0c0.6,0,1-0.2,1.4-0.6c1-1,2.2-1.8,3.6-2.4
		c3-1.2,6.1-1.6,9.3-1.3c2.5,0.3,5,0.7,7.4,1.1c3.3,0.6,6.6,0.6,9.9-0.3c5-1.4,9.8-3.2,13.9-6.5c3-2.4,5.6-5.1,8.4-7.7
		c0.2-0.2,0.3-0.4,0.4-0.6c0-0.1-0.1-0.1-0.1-0.2c-1.1,0.5-2.3,0.9-3.4,1.4c-4.2,2.1-8.1,4.7-11.9,7.5c-1.6,1.2-3.2,2.2-5.2,2.8
		c-1.3,0.4-2.7,0.7-4.1,1.1c-3.8,1.1-7.6,0.9-11.4,0.7c-3.4-0.2-6.7-0.8-10.1-0.6c-1.4,0.1-2.8,0.2-4.2,0.5
		C193.6,118.4,190.7,119.9,188.3,122.3z M268.9,27.5c0-0.1,0-0.1,0-0.2c-1-0.1-2-0.2-3-0.3c-1.9-0.1-3.8-0.1-5.7-0.1
		c-4.1-0.2-8.2,0.3-12.2,0.9c-3.6,0.5-7.1,1.5-10.7,2.3c-3.1,0.7-6.1,1.8-9,3.2c-2.3,1.1-4.7,2.3-7,3.3c-5,2.2-9.5,5.2-13.6,8.8
		c-1,0.9-1.2,1.8-0.9,3.2c0.7-0.6,1.4-1.2,2-1.7c1.6-1.3,3.2-2.7,5-3.8c3.4-2,7-3.7,10.5-5.6c3.9-2.1,8.1-3.3,12.3-4.6
		c8.2-2.6,16.5-4.3,25.1-5C264,27.8,266.5,27.6,268.9,27.5z M171.5,146.7c-0.2-0.3-0.4-0.5-0.6-0.8c-2.8-3.6-2.4-8,0.9-11.1
		c1.4-1.3,3-2.2,4.8-2.8c2.7-1,5.5-1.3,8.4-1.1c0.5,0,1.2,0.2,1.6,0c1.3-0.5,2.5-1.2,3.7-1.9c-0.5-0.2-1-0.2-1.5-0.2
		c-2.9,0.2-5.8,0.5-8.6,0.8c-3.8,0.3-7.3,1.4-10.6,3.4c-2.3,1.4-4.2,3.2-4.9,6c-0.5,2.1-0.8,4.2-0.6,6.3c0.3,3,1.7,5.3,4.9,6.4
		C169.9,150.1,170.7,148.4,171.5,146.7z M218.8,163c3.5-1,6.7-1.8,9.9-2.7c5.3-1.6,10.3-3.7,14.7-7.2c0.2-0.2,0.4-0.4,0.7-0.8
		c-0.9,0.1-1.5,0.2-2.2,0.3c-2.3,0.1-4.6,0.2-6.9,0.2c-1.4,0-2.8-0.1-4.2-0.2c-0.8,0-1.5-0.2-2.3-0.1c-0.4,0-0.9,0.1-1.3,0.4
		c-2.8,2.1-4.9,4.7-6.9,7.5C219.9,161,219.5,161.9,218.8,163z M364.9,111.7c2-0.5,3.8-1.2,5.4-2.2c1.2-0.8,1.6-1.8,1.3-3.2
		c-0.8-4-3.2-6.6-7.6-7.4c-5.4-1-10.9-0.5-16.2,0.8c-0.5,0.1-0.8,0.4-0.8,1.1c0.5,0,1-0.1,1.5-0.1c1.4,0,2.8-0.1,4.2,0.1
		c1.4,0.1,2.8,0.4,4.1,0.7c2.5,0.6,5,1.4,7.1,3C366.5,106.3,366.9,109,364.9,111.7z M178,231.8c-3.3,4.2-15.8,38.5-15.6,42.7
		c0.2-0.3,0.3-0.5,0.4-0.7c0.9-2,1.9-3.9,2.8-5.9c2.5-5.6,5-11.2,7.4-16.8c1-2.3,1.5-4.9,2.1-7.3c0.8-2.9,1.5-5.8,2.2-8.8
		C177.6,234.1,177.7,233,178,231.8z M342,135.9c0.4,2,2.6,6.3,4,7.9c1.3,1.5,2.3,3.1,2.8,4.9c0.8,2.6,1.7,5.2,2.1,7.9
		c0,0.3,0.2,0.6,0.2,0.8c4.8,1.5,12.5,2.7,15.1,2.3c-1.1-0.6-1.9-1.1-2.8-1.6c-5.1-2.7-9.4-6.4-13-10.9c-2.2-2.9-4.4-5.9-6.5-8.8
		C343.3,137.6,342.7,136.9,342,135.9z M393.4,115.3c-0.5,1.8-0.9,3.6-1.4,5.3c-0.5,1.8-1.7,3.2-3,4.7c1.6,0,3,0.1,4.4,0
		c2.7-0.1,5.2-0.7,7.6-1.9c0.6-0.3,1.2-0.6,1.7-1.1c1-0.9,1-2,0.2-3c-0.2-0.3-0.5-0.5-0.7-0.7C399.6,116.7,396.6,115.8,393.4,115.3z
		 M204.4,48.8c-0.1,0-0.2-0.1-0.3-0.1c-2.1,2.8-4.3,5.6-6.3,8.5c-0.8,1.1-1.5,2.3-2,3.6c-1.6,4-2.7,8-3.2,12.3
		c-0.3,2.7,0.3,5.1,1.7,7.3c2,3.2,4,6.3,7.4,8.3c0.9,0.5,1.7,1,2.8,0.7c1-0.3,2.1-0.4,3.2-0.9c-0.8-0.3-1.7-0.6-2.5-0.7
		c-1.4-0.3-2.7-0.8-3.8-1.7c-2.5-2-4.2-4.5-5.2-7.5c-1.2-3.7-1.5-7.4-1.1-11.2c0.4-3.3,1.8-6.3,3.5-9.1c1.5-2.4,3.3-4.5,5.1-6.7
		C204.4,50.7,204.5,49.8,204.4,48.8z M399.4,242.7c-0.1-0.1-0.1-0.1-0.2-0.2c-3.3,1.3-6.8,2.2-10.3,2.7c-3.1,0.4-6.1,0.6-9.1,0
		c-0.7-0.1-1.2-0.1-1.9,0.2c-1.5,0.5-3,1-4.6,0.8c-0.1,0-0.2,0.1-0.5,0.3c0.5,0.3,0.8,0.6,1.2,0.8c2.1,0.9,4.3,1.7,6.6,1.8
		c2.8,0.1,5.5,0.1,8.3-0.2c4-0.4,7.3-2.3,10-5.4C399.1,243.2,399.2,242.9,399.4,242.7z M332.8,41.2c0,0.1,0,0.2,0,0.3
		c1.5,0.4,3,0.8,4.6,1.1c3.9,0.7,7.8,1.4,11.7,2c2.4,0.4,4.8,0.7,7.2,0.6c2.4-0.1,4.6-0.5,6.8-1.4c2.1-0.8,2.6-2.4,1.4-4.4
		c-0.2,0.2-0.5,0.3-0.7,0.5c-2,1.7-4.4,2.4-7,2.5c-4.5,0.2-9,0.1-13.5-0.7c-1.9-0.4-3.8-0.5-5.7-0.5C336,41.2,334.4,41.2,332.8,41.2
		z M345,103.9c1.2,0.3,2.3,0.6,3.5,0.9c2.3,0.7,4.6,1.5,6.9,2.2c2.6,0.8,5.1,1.5,7.8,1.7c0.7,0.1,1.4,0,2.1,0
		c-0.1-1.5-0.6-2.4-1.7-3.1c-1-0.6-2-1.1-3.1-1.5c-2.5-1-5.2-1.4-7.8-1.7c-1.4-0.2-2.9-0.1-4.3-0.1c-0.4,0-0.9,0.1-1.3,0.1
		C346,102.3,345.3,102.7,345,103.9z M182,148.7c0.4-0.3,0.8-0.5,1.3-0.8c2.1-1.4,4.3-2.6,6.8-3.2c1.5-0.3,2.9-0.7,4.4-0.9
		c4.4-0.7,8.9-0.9,13.4-0.3c4.8,0.6,9.6,1.2,14.4,2c3.5,0.6,7,1,10.5,0.8c0.3,0,0.6,0,0.9-0.1c-0.3-0.3-0.6-0.3-0.8-0.4
		c-1.4-0.2-2.9-0.4-4.3-0.7c-3.3-0.8-6.7-1.4-10-1.7c-0.7-0.1-1.4-0.3-2.1-0.4c-0.7-0.1-1.4-0.4-2.1-0.4c-2.2-0.2-4.4-0.4-6.6-0.5
		c-4.5-0.2-8.9-0.2-13.3,0.8c-3,0.7-5.8,1.6-8.6,2.9C184.3,146.4,183,147.2,182,148.7z M232.6,149.5c0,0.1,0,0.2,0,0.3
		c0.5,0.1,0.9,0.3,1.4,0.4c1.8,0.3,3.7,0.6,5.5,0.8c1,0.1,1.9,0.1,2.9,0c1-0.1,1.9-0.3,2.9-0.3c0.6,0,1.2-0.2,1.6-0.7
		c0.3-0.3,0.6-0.5,0.9-0.7c1.3-1.1,2.4-2.4,3.3-4c-0.4,0.1-0.6,0.1-0.9,0.1c-2.7,0.7-5.4,1.2-8.1,1.5c-2.7,0.3-5.3,0.8-7.8,1.8
		C233.8,148.9,233.2,149.2,232.6,149.5z M176.8,203.3c-0.1-0.1-0.2-0.2-0.3-0.3c-0.1,0.1-0.3,0.2-0.4,0.3c-3.8,2.8-7.6,5.4-11.3,8.3
		c-2.4,1.9-4.5,4.1-6.7,6.1c-0.6,0.5-0.7,1.2-0.4,1.8c0.3,0.6,0.8,1.2,1.3,1.7c0.4,0.3,0.8,0.1,1.1-0.2c0.5-0.6,0.9-1.1,1.4-1.7
		c2.5-2.9,5-5.8,7.6-8.6c2.1-2.2,4.3-4.3,6.5-6.5C176,203.8,176.4,203.5,176.8,203.3z M177.4,108.4c-2.9,2.6-4.9,11.9-4.9,17
		c1.2-0.4,2.4-0.8,3.5-1.1c0.1-1,0.2-1.8,0.3-2.7c0.4-2.2,1-4.4,1.9-6.5c0.3-0.6,0.2-1.1,0-1.7c-0.3-1-0.6-1.9-0.8-2.9
		C177.3,109.8,177.4,109.1,177.4,108.4z M342.6,92.9c-0.1,0-0.1-0.1-0.2-0.1c-0.7,0.4-1.4,0.8-2.2,1.2c-0.6,0.3-1.1,0.8-1.5,1.3
		c-0.7,0.8-1.6,1.6-2.5,2.2c-2.2,1.3-4.4,2.5-7,2.8c0,0,0,0.1-0.1,0.2c2.4,1.3,4.7,2.7,7.1,4c0.1-0.3,0.2-0.4,0.2-0.6
		c1.2-2.7,2.3-5.5,4.1-7.9C341.4,95,342,94,342.6,92.9z M263.2,135c-0.1,0.2-0.3,0.3-0.4,0.5c-2.5,3.6-5.4,6.8-9.4,8.8
		c-0.1,0.1-0.3,0.2-0.4,0.3c-0.9,1.4-1.7,2.9-2.7,4.4c0.2,0,0.4,0,0.5-0.1c3.2-1.5,6.4-3.3,9.1-5.6c0.7-0.6,1.3-1.3,1.8-2.1
		C262.8,139.3,263.3,137.2,263.2,135z M307.6,31.8c0,0.1,0,0.2-0.1,0.3c8.3,4.7,17.2,7.2,26.9,7.4C325.4,36.9,316.5,34.4,307.6,31.8
		z M332.9,138.5c0.1,0.2,0.1,0.4,0.2,0.5c0.8,1.7,2.3,2.9,3.7,4c3.1,2.5,4.1,5.8,3.8,9.6c0,0.5-0.1,1-0.2,1.7
		c1.5-2.3,2.1-5.8,1.8-7.9c-0.2-1.5-0.8-2.9-2.4-3.8c-2.2-1.2-4.3-2.7-6.5-4C333.2,138.6,333.1,138.6,332.9,138.5z M349.3,157.1
		c-0.9-3-1.8-5.7-3.7-8.3c-0.8,2.6-1.5,5-2.3,7.4C345.4,156.5,347.2,156.8,349.3,157.1z M185,132.2c-1.9-0.5-6.2-0.1-8.4,0.9
		c-1.2,0.6-2.5,1.2-3.5,2.1c-3.2,2.7-3.5,7.1-0.9,10.5c0.2-0.3,0.4-0.6,0.6-0.9c-2.1-2.1-2.3-5.3-0.6-7.5c2.4-3.1,6.3-4.3,10.2-3
		C183.2,133.6,184,132.9,185,132.2z M307.5,34.3c0-0.1,0.1-0.2,0.1-0.3c-1-0.7-2-1.3-2.9-2c-0.9-0.7-1.9-1-3-1.2
		c-3.6-0.4-7.3-0.8-10.9-1.2c-0.4,0-0.7,0-1.1,0c0,0.1,0,0.1,0,0.2C295.6,31.3,301.6,32.8,307.5,34.3z M320.7,74.5
		c-0.2-0.3-0.3-0.4-0.4-0.5c-0.3-0.2-0.7-0.4-1-0.5c-2.7-1-5.5-1.1-8.3-0.2c-2.2,0.7-4.4,1.6-6.6,2.5c-0.7,0.2-1.3,0.5-1.9,0.8
		c0,0.1,0,0.2,0.1,0.3C308.3,74.7,314.4,74.4,320.7,74.5z M326.1,95.7c1.2-0.5,2.1-1.1,2.7-1.9c1.6-1.9,1.6-4.3-0.5-5.9
		c-1.2-0.9-1.7-0.8-2.5,0.4c0,0.1,0,0.2-0.1,0.2C327.6,90.7,327,93.1,326.1,95.7z M408.1,259.6c0.1,0,0.1,0.1,0.2,0.1
		c0.2-0.1,0.3-0.2,0.5-0.3c2.8-2.5,4.2-5.7,4.6-9.3c0.1-1.1-0.1-2.2-0.7-3.2c-0.7-1.3-2.1-2.1-3.5-2c1.8,2.2,3,4.7,2.5,7.6
		C411.2,255.1,410,257.5,408.1,259.6z M245.4,143.6c6.1-0.2,10.7-3.1,14-8C255.2,139,250.6,141.8,245.4,143.6z M173.8,54.4
		c-0.2,0-0.3,0.1-0.5,0.1c-1.5,0.3-2.5,1.4-3.7,2.2c-1.3,0.9-1.9,2.2-2,3.8c-0.1,1.8,0.4,3.5,1,5.2c0.1,0.2,0.2,0.4,0.4,0.6
		c-0.1-2.3-0.2-4.5,0.6-6.7C170.5,57.3,172.1,55.9,173.8,54.4z M275,189.4c-1.2,1.9-2.4,3.7-3.6,5.6c2.2-0.5,4.1-0.9,6.2-1.4
		C276.8,192.2,276,190.9,275,189.4z M344.8,328.3c3.6-1,8.6-6.2,8.9-9.1C353,319.6,345.1,327.6,344.8,328.3z M206.6,168
		c-0.1-0.1-0.1-0.2-0.2-0.3c-5.1,1.6-9.9,3.9-14.4,6.8c1.7-0.6,3.3-1.4,5-1.9c3.1-0.9,5.8-2.6,8.7-4
		C206,168.6,206.3,168.3,206.6,168z M176.8,167.2c-1.1-2.5-2-5-1.6-7.8c0.4-2.8,1.5-5.2,2.8-7.7c-1.5,1.8-2.9,3.7-3.4,6.1
		c-0.4,2-0.2,4.1,0.1,6.1C174.9,165.2,175.5,166.4,176.8,167.2z M340.1,92.2c1.4-0.4,3.9-2.7,4.4-4c-1.5,0-3,0-4.4,0
		C340.1,89.5,340.1,90.8,340.1,92.2z M265,136.9c0.1,0,0.2,0,0.3,0c1.8-2.7,2.7-5.7,2.5-8.9c-0.6,0.8-1.2,1.7-1.7,2.6
		c-0.2,0.3-0.2,0.6-0.3,1c-0.2,0.9-0.3,1.8-0.4,2.6C265.2,135.1,265.1,136,265,136.9z M343.2,105.9c5.5,1.5,11,2.8,16.7,3.3
		c-2.6-0.6-5.1-1.1-7.7-1.7c-2.6-0.6-5.2-1.4-7.7-2.2C343.8,105.1,343.5,105.3,343.2,105.9z M388.4,270.1c-3.5,0-9.3,4.4-10.1,7.7
		c0.9-0.9,1.7-1.6,2.4-2.4c1.2-1.3,2.5-2.3,4.1-3.1C386,271.6,387.1,270.9,388.4,270.1z M345.2,108.9c4.8,1.8,9.7,3.5,15,2.5
		C355.1,111.1,350.2,110.1,345.2,108.9z M298.1,86c0.3,0.1,0.6,0.2,1,0.2c2.3,0.1,4.6,0,6.8-0.8c2.1-0.8,4.2-1.1,6.4-0.9
		c0.2,0,0.4-0.1,0.8-0.3c-2.2-0.4-4.5-0.3-6.5,0.2C303.7,85.1,301,86.2,298.1,86z M265.1,228.8c-1.4-1.6-2.9-3.2-4.3-5
		c-1.4-1.7-2.1-3.8-2.7-6c-0.8,0.7-0.8,1.5-0.5,2.2c0.3,0.6,0.6,1.2,0.9,1.8C260.3,224.6,262.8,226.5,265.1,228.8z M294.3,91.3
		c1.8,1.3,3.9,2.1,4.8,4.5c0.4-0.4,0.7-0.7,1-1C298.5,92.7,296.5,91.7,294.3,91.3z M349.4,233.8c-1.1,0.7-1.8,1.5-2.4,2.3
		c-0.2,0.2-0.5,0.3-0.8,0.5c-0.1-0.1-0.1-0.1-0.2-0.2c-0.3,1.3-0.7,2.6-1,3.9c0.1,0,0.2,0.1,0.3,0.1c0.1-0.5,0.2-1,0.4-1.4
		c0.1-0.4,0.1-1,0.9-1.2c-0.1,0.7-0.1,1.2-0.2,1.7c0.6-0.9,0.9-1.9,1.4-2.8C348.1,235.8,348.7,235,349.4,233.8z M179.2,115
		c-0.1,0-0.2,0-0.3,0c-0.9,1.8-1.9,7.7-1.5,8.8c0.1-0.2,0.3-0.4,0.3-0.6c0-2.6,0.7-5.1,1.5-7.6C179.2,115.5,179.2,115.2,179.2,115z
		 M276.4,119c1.6-1.5,3-3.1,4.1-5C278.6,115.2,277.4,117,276.4,119z M344.8,90.7c2-1.3,3.3-3.3,5.1-4.9
		C348.3,86.3,346.3,88.3,344.8,90.7z M287.3,100.6c-1.8,0-4,1.2-4.9,2.6C284,102.4,285.6,101.5,287.3,100.6z M229.5,151.3
		c1.7,0,3.1,0.5,4.6,0c-0.7-0.3-1.4-0.4-1.9-0.7C231.2,150.1,230.4,150.4,229.5,151.3z M280.5,107.5c-2.4,0.5-2.9,1-3.3,2.9
		C278.4,109.4,279.5,108.4,280.5,107.5z M285.2,108.9c1.1-1.3,2.2-2.6,2.9-4.2C286.6,105.8,285.8,107.3,285.2,108.9z M306.8,83.7
		c-1.4,0-5.7,1.3-6.2,1.8C302.6,85,304.7,84.3,306.8,83.7z M314.7,82.6c-0.8,0-1.7,0-2.5,0c-0.4,0-0.9,0.1-1.3,0.2
		C312.2,82.8,313.5,83.7,314.7,82.6z M346.1,96.6c-0.5,0.9-1,1.7-1.5,2.6C345.4,98.6,346,97.8,346.1,96.6z M362,109.4
		c-0.1,0-0.1,0-0.1,0c0.1,0,0.1,0.1,0.2,0.1c0.9,0.2,1.8,0.3,2.7,0.5c0-0.1,0-0.2,0-0.3C363.9,109.6,362.9,109.5,362,109.4z
		 M349.2,232.5c0,0-0.1-0.1-0.1-0.1c-0.3,0.4-0.7,0.8-1,1.1C348.4,233.2,348.8,232.9,349.2,232.5z M282.3,241.8
		c0,0.1-0.1,0.1-0.1,0.2c0.3,0.2,0.5,0.4,0.8,0.6c0,0,0.1-0.1,0.1-0.1C282.8,242.2,282.5,242,282.3,241.8z M284.3,243.8
		c0,0,0.1-0.1,0.1-0.1c-0.2-0.2-0.5-0.4-0.7-0.6c0,0-0.1,0.1-0.1,0.1C283.9,243.4,284.1,243.6,284.3,243.8z"/>
	<path class="st0" d="M216.1,214.7c0.1,1.8,0.2,3.6,0.3,5.5c0.1,2.9,0.7,5.7,1.7,8.5c0.5,1.3,1.1,2.6,1.7,3.8
		c2.3,5.3,4.4,10.6,5.3,16.3c0.9,5.5,1.7,10.9,1.9,16.5c0.2,5.2-0.2,10.4-0.9,15.5c-0.4,2.5-1.1,5-1.9,7.4
		c-1.3,3.6-2.8,7.1-4.3,10.6c-2.4,5.4-4.3,10.8-5.4,16.6c-0.9,4.8-1,9.6-0.1,14.5c0.4,2,0.5,4,0.8,6.1c0.6,4.9,1.9,9.7,3.8,14.3
		c0.8,2,1.7,4,2.5,6c1,2.4,2.3,4.6,4,6.6c1,1.2,2,2.4,2.9,3.5c0.1,0.2,0.3,0.3,0.3,0.5c0,0.3,0,0.7-0.2,0.9c-0.2,0.1-0.7,0.1-0.9,0
		c-0.3-0.2-0.6-0.6-0.9-0.9c-1.4-1.7-2.8-3.4-4.2-5.2c-1.6-2-2.4-4.5-3.4-6.8c-0.8-1.9-1.5-3.9-2.2-5.8c-1.6-4.4-2.6-8.9-2.9-13.6
		c-0.2-2.7-0.5-5.3-0.8-8c-0.6-5,0-9.9,1-14.8c1.1-6,3-11.7,5.2-17.3c1.8-4.4,3.4-8.9,4.3-13.6c0.2-1.1,0.4-2.3,0.5-3.4
		c0.6-6.3,1-12.7,0.2-19c-0.6-4.6-1.2-9.1-1.9-13.7c-0.5-3.3-1.6-6.4-2.8-9.5c-1-2.7-2.1-5.3-2.9-8c-0.6-1.9-0.8-3.9-1-5.9
		c-0.2-2.5,0-5,0-7.5C216,214.7,216,214.7,216.1,214.7z"/>
	<path class="st0" d="M313.7,101.1c-0.4,0.3-0.9,0.5-1.3,0.8c-1.5,0.6-2.9,1.4-4,2.6c-0.7,0.7-1.3,1.4-1.9,2.1
		c-0.9,1-2.1,1.6-3.6,2.2c0.1-2.5-0.1-4.8,1.3-6.8c0.8-1.1,1.8-2.2,2.7-3.2c1-1.2,2.1-2.4,3.1-3.7c1.4-1.9,2.6-3.9,4-5.8
		c1.8-2.3,3.7-4.6,6.3-6.1c1.7-1.1,3.6-1.7,5.7-1.8c1.5-0.1,2.1,1,1.3,2.3c-0.1,0.2-0.3,0.4-0.4,0.6c-2.7,2.8-4.6,6.1-6.4,9.5
		c-1.4,2.5-3.1,4.8-5.5,6.4C314.3,100.2,314,100.7,313.7,101.1z"/>
	<path class="st0" d="M212.8,183.5c0.2,1.5,0.1,2.9-0.3,4.4c-0.3,1-0.5,2-0.7,3c-0.5,2.1-1.2,4.1-2,6c-2.1,5-4.9,9.5-7,14.5
		c-1,2.5-2,5.1-3,7.6c-1.8,4.7-3.4,9.4-4.5,14.2c-1.1,4.8-2.2,9.5-2.5,14.4c0,0.7-0.1,1.4-0.2,2c-0.4,2.2-0.5,4.5-0.2,6.7
		c0,0.3,0.1,0.7,0.1,1c-0.1,5.3,1,10.5,2.1,15.6c0.2,1,0.6,2,0.9,2.9c0.5,1.6,1.2,3.1,1.6,4.7c0.8,2.7,2.2,5.1,3.9,7.4
		c0.4,0.5,0.9,0.9,1.3,1.4c0.6,0.5,0.7,1,0.4,1.4c-0.3,0.5-1,0.7-1.6,0.3c-0.5-0.3-0.9-0.7-1.2-1.1c-1.9-2.5-3.6-5.1-4.6-8
		c-0.7-2.1-1.4-4.1-2.1-6.2c-1.1-3.4-1.6-6.9-2.2-10.3c-0.5-3.1-0.4-6.3-0.6-9.4c-0.1-2.4,0.1-4.7,0.5-7c0.3-1.7,0.4-3.5,0.7-5.2
		c0.5-2.8,1.2-5.6,1.8-8.3c1.5-6.6,3.9-12.9,6.3-19.3c1.5-4.1,3.6-7.9,5.4-11.9c0.2-0.4,0.4-0.7,0.5-1c0.8-1.7,1.6-3.4,2.5-5.1
		c1.9-3.6,2.8-7.5,4-11.3C212.4,185.9,212.5,184.7,212.8,183.5z"/>
	<path class="st0" d="M310,315.4c0.3,0.1,0.5,0.2,0.9,0.3c-0.9,0.8-1.6,1.5-2.5,2.2c-0.3,0.2-0.7,0.4-1,0.4
		c-0.9,0.1-1.5-0.5-1.3-1.4c0.2-0.8,0.6-1.6,1.1-2.2c0.7-0.9,1.2-1.8,1.6-2.9c0.8-1.9,1.7-3.8,2.7-5.6c1.4-2.5,3.5-4.2,6.2-5
		c1.1-0.3,2.3-0.2,3.4-0.2c0.7,0,1.3,0.1,2,0c1.2-0.1,2.4,0,3.1,1.1c0.7,1.1,0.3,2.2-0.3,3.3c-0.9,1.5-2.1,2.6-3.5,3.5
		c-2,1.3-4,2.5-6.4,3.2C313.9,312.7,311.9,313.9,310,315.4z"/>
	<path class="st0" d="M313,150.2c0.1,1.1-0.3,1.5-1.3,1.6c-0.3,0-0.8,0-1-0.1c-0.9-0.7-1.8-0.5-2.8-0.5c-0.7,0-1.4-0.1-2.2-0.2
		c-2.8-0.5-4.6-2.6-4.8-5.4c0-0.2,0-0.4,0-0.7c-0.4-0.1-0.7-0.3-1.1-0.4c-0.8-0.3-1.4-0.9-1.7-1.8c-0.2-0.5-0.2-0.9,0.1-1.3
		c0.4-0.4,0.8-0.3,1.3-0.1c0.2,0.1,0.4,0.2,0.6,0.3c0.1-0.1,0.2-0.2,0.2-0.3c0.1-1.5,1-2.2,2.4-2.5c3.7-0.9,7.2-0.4,10.3,1.8
		c2.4,1.8,3.5,4.2,3,7.2c-0.2,0.9-0.3,1.1-0.9,1.7c-0.5-0.4-0.5-0.4-0.5-3.9c-1.1-0.1-1.7-1.1-2.4-1.8c-0.5-0.4-0.9-0.9-1.4-1.3
		c-2.5-1.9-5.1-1.4-7.8-0.5c0.8,0.4,1.6,0.2,2.4,0.2c0.4,0,0.8-0.1,1.3-0.2c2.3-0.2,4,0.8,5.1,2.7c0.7,1.1,1.2,2.3,1.6,3.6
		c0.3,0.9,0.7,1.8,1.4,2.6c0.3,0.4,0.5,0.9,0.6,1.3c0.1,0.2-0.2,0.5-0.3,0.8c-0.6-1-1.1-1.8-1.7-2.6
		C313.4,150.4,313.1,150.3,313,150.2c0.1-0.5-0.1-1-0.6-1.2c-0.7-0.3-1.3,0.1-1.9,0.7C311.4,149.7,312.3,149.5,313,150.2z
		 M308.3,150c-1.7-0.2-3.4-0.6-4.9-1.7C304.7,150.1,306.4,150.2,308.3,150z M308.7,146.6c0.5-0.1,1,0,1-0.7c0-0.4-0.2-0.7-0.7-0.6
		C308.3,145.5,308.5,146,308.7,146.6z M311.2,146.1c0.2,0.8-0.1,1.7,0.9,2.1C312.2,147.4,311.8,146.8,311.2,146.1z M302.5,146.8
		c0.3-0.7-0.1-1.3-0.5-2C301.7,145.8,302.1,146.3,302.5,146.8z"/>
	<path class="st0" d="M335.2,221.5c0.2,0.5,0.3,0.8,0.5,1.2c1.6-0.6,2.9-0.1,4,1.2c0.7,0.9,1.5,1.7,2,2.6c1.4,2.2,1.4,4.6,0.3,6.9
		c-0.5,1-0.6,1-1.8,1c-0.3,0-0.7,0.2-0.8,0.4c-0.4,0.5-0.6,1-0.9,1.5c-0.3,0.5-0.7,0.7-1.2,0.5c-1.5-0.7-3.2-1-4.4-2.4
		c-1.1-1.2-1.6-2.6-1.5-4.2c0.1-1.7,0.5-3.3,1.3-4.7C333.5,224.2,334.3,223,335.2,221.5z"/>
	<path class="st0" d="M348.2,226.4c-0.1-0.3-0.2-0.5-0.3-0.8c-0.2-1.6-0.3-3.3-0.4-4.9c-0.1-0.6-0.1-1.2-0.3-1.7
		c-0.7-2.4-1.5-4.7-2.3-7c-1.3-3.6-1.5-7.4-2.2-11.1c-0.7-3.9-1.7-7.8-3.6-11.4c-2.4-4.5-4.5-9.1-5.4-14.3
		c-0.7-3.7-1.5-7.4-2.3-11.1c-0.5-2.2-1.1-4.3-1.8-6.4c-1.9-6.1-2.7-10.5-2.1-17.2c0,0.6,0.1,1.2,0.1,1.8c0.1,3.5,0.3,6.9,1.2,10.2
		c0.7,2.5,1.5,5,2.4,7.4c1.6,4.1,2.9,8.2,3.7,12.4c1.1,5.3,2.5,10.4,4.3,15.5c0.7,2,1.6,3.8,2.4,5.8c1.7,4.5,3.4,9.1,4.1,13.9
		c0,0.3,0.1,0.5,0.2,0.7c0.9,3,1.7,6,2.8,8.9c0.7,1.9,0.9,3.7,0,5.6c-0.4,0.9-0.5,2-0.4,3c0,0.2,0,0.5,0,0.7
		C348.3,226.3,348.3,226.4,348.2,226.4z"/>
	<path class="st0" d="M321.1,207c2.2,2.5,3.9,5.4,4.8,8.6c1.2,4.1,1.2,8.2,0.6,12.4c-0.1,0.8,0,1.5,0.2,2.3c0.7,1.8,1.2,3.7,1.9,5.6
		c0.4,1,1,2,1.6,3.2c0.2-0.5,0.2-0.6,0.3-0.8c0.3-0.5,0.6-0.6,1-0.2c1.1,1,2.1,2.1,3.2,3.1c0.2,0.2,0.3,0.4,0.4,0.6
		c0.3,0.7,0.1,1.1-0.7,1.3c-0.3,0-0.6,0.1-0.8,0.2c-0.9,0.7-1.2,0.8-2.2,0.2c-0.5-0.3-0.8-0.7-1.5-0.4c-0.3,0.1-0.9-0.2-1.2-0.5
		c-2-1.6-3.2-3.7-3.5-6.3c-0.2-2.2-0.5-4.4-0.8-6.6c-0.1-0.8-0.1-1.7-0.1-2.5c0.2-4.3,0.3-8.5-0.4-12.7c-0.4-2.1-0.9-4.1-2-5.9
		C321.6,208.1,321.4,207.5,321.1,207z M326.3,235.6c-0.1,0-0.1,0.1-0.2,0.1c0.3,0.8,0.5,1.5,0.8,2.3c0.1,0,0.1,0,0.2-0.1
		C326.8,237.2,326.5,236.4,326.3,235.6z"/>
	<path class="st0" d="M284.1,193.9c0.4,0.4,0.8,0.7,1.2,1.1c1.8,1.6,4,2.5,6.3,3.3c0.8,0.3,1.6,0.6,2.3,1c2,1.2,4.2,1.8,6.4,2.4
		c3.3,0.8,6.6,1.7,9.7,3.2c2.4,1.2,4.7,2.6,6.7,4.5c1.3,1.2,2.3,2.6,2.6,4.3c0.2,0.8,0.1,0.9-0.6,1.9c-0.3-0.3-0.6-0.7-0.9-1
		c-2.5-3.2-5.6-5.7-9.4-7.5c-2.8-1.3-5.8-2-8.7-2.9c-3.6-1-7-2.3-10-4.7c-1.7-1.4-3.5-2.6-5-4.3c-0.3-0.3-0.6-0.7-0.8-1
		C284,194,284.1,194,284.1,193.9z"/>
	<path class="st0" d="M298.1,42.1c-0.7,1.8-1.1,2-2.7,1.8c-0.6-0.1-1.2-0.4-1.8-0.5c-1.1-0.2-2.3-0.3-3.4-0.4c-0.3,0-0.7,0.3-1,0.5
		c-1.8,1.2-3.7,1.8-5.9,1.7c-0.6,0-1.2-0.1-1.7-0.4c-1.9-1-2.1-3.2-0.4-4.5c2.8-2.2,5.9-2.9,9.4-2.2c2.5,0.5,4.8,1.5,6.8,3.1
		C297.5,41.5,297.8,41.8,298.1,42.1z M291.9,41.8c1.5,0.2,2.8,0.3,4.2,0.5C294.5,40.9,293.4,40.8,291.9,41.8z"/>
	<path class="st0" d="M341.2,73.6c-0.5,0.1-0.9,0.2-1.4,0.3c1,0.6,1.8,0.7,2.8,0.5c1.8-0.4,3.6-0.7,5.4-1c1.1-0.2,2.3,0,3.4,0.3
		c2,0.6,3.3,2.7,1.4,5c-0.9,1.2-2.2,1.8-3.7,2.2c-1,0.2-1.9-0.1-2.8-0.7c-0.9-0.6-1.8-1.3-2.7-1.9c-1.2-0.8-2.4-1.5-3.6-2.2
		c-0.4-0.3-0.9-0.5-1.3-0.8c-0.5-0.4-0.7-0.9-0.5-1.5c0.2-0.6,0.9-1,1.5-1C340.4,72.8,340.9,73,341.2,73.6z"/>
	<path class="st0" d="M339.2,237.6c0.1-0.2,0.3-0.5,0.4-0.7c0.3-0.3,0.6-0.5,0.9-0.8c2.7-2.2,3.4-7.1,2.4-10c-0.6-1.5-1.7-2.7-3-3.6
		c-0.6-0.5-1.4-0.8-2.1-1.3c0.7-0.7,1.5,0.2,2.3-0.2c-0.5-0.3-0.8-0.6-1.2-0.8c-1.4-0.6-4.4,0.5-5.2,1.9c-0.5,1-1.1,2-1.7,3
		c-1.3,1.9-1.7,4.1-1.8,6.3c0,1.5,0.9,2.6,2,3.5c0.4,0.4,1.2,0.6,1.3,1.4c-0.2,0-0.5,0.2-0.6,0.1c-1.4-0.8-2.7-1.7-3.3-3.3
		c-0.2-0.5-0.4-1-0.4-1.5c0-2.3,0.5-4.5,1.9-6.5c0.8-1.1,1.5-2.3,2.2-3.4c1.3-2.2,4.6-2.9,6.6-1.3c1.2,0.9,2.3,1.9,3.4,2.9
		c1.8,1.7,2.4,3.7,1.8,6.2c-0.8,3.3-2.6,6-5.2,8.1c-0.2,0.1-0.4,0.2-0.7,0.2C339.3,237.8,339.3,237.7,339.2,237.6z"/>
	<path class="st0" d="M340.1,217.3c-0.7-2-1.3-4.1-2.1-6c-0.8-2-1.7-3.9-2.8-5.7c-1.1-1.8-1.8-3.8-3.4-5.6c-0.3,1.3-0.5,2.3-0.7,3.3
		c-0.6-1.2-0.8-2.5-0.7-3.8c0.2-1.4,1.3-1.9,2.4-1.1c0.8,0.6,1.4,1.4,1.9,2.2c1.2,1.8,2.3,3.7,3.3,5.6c0.8,1.6,1.6,3.2,2.3,4.8
		c0.6,1.4,0.9,2.8,0.8,4.4C341.2,216.1,341,216.8,340.1,217.3z"/>
	<path class="st0" d="M270.7,162.4c0,1,0.2,2,0.1,2.9c-0.1,2.1,0,4.2,0.6,6.2c1.3,4.1,2.8,8.2,5.3,11.8c1.2,1.7,2.4,3.3,4,4.6
		c0.1,0.1,0.3,0.2,0.4,0.4c0.1,0.1,0.1,0.4,0,0.5c-0.1,0.1-0.4,0.2-0.5,0.2c-0.3-0.1-0.5-0.3-0.7-0.5c-0.9-0.8-1.7-1.5-2.5-2.3
		c-1.2-1.3-2.5-2.5-3.4-4c-1.2-1.8-2.2-3.7-3-5.6c-0.8-2-1.3-4.1-1.7-6.1c-0.5-2.5-0.1-4.9,0.7-7.3c0.1-0.2,0.1-0.3,0.2-0.5
		C270.2,162.6,270.3,162.6,270.7,162.4z"/>
	<path class="st0" d="M315.8,214.1c2.1,1.6,2.8,3.9,3.1,6.4c0.2,1.9,0.3,3.7,0.5,5.6c0.2,1.8,0.5,3.5,0.9,5.3c0.2,1,0.8,1.9,1.2,2.9
		c0.2,0.4,0.4,0.8,0.5,1.3c0,0.3-0.1,0.7-0.3,0.8c-0.1,0.1-0.6,0-0.8-0.2c-0.3-0.2-0.5-0.5-0.7-0.9c-0.7-1.1-1.2-2.3-1.4-3.7
		c-0.6-3.4-0.7-6.8-0.9-10.3c-0.1-1.1-0.2-2.2-0.3-3.3c-0.2-1.1-0.6-2.2-1.3-3.2C316.2,214.6,316,214.3,315.8,214.1z"/>
	<path class="st0" d="M346.7,234.2c-0.1,0.2-0.3,0.3-0.4,0.5c-0.5,0.5-1,1-1.5,1.5c-0.2,0.2-0.5,0.6-0.8,0.3c-0.1-0.1,0-0.5,0.1-0.8
		c0.1-0.2,0.2-0.3,0.3-0.4c-0.1-0.1-0.1-0.1-0.2-0.2c-0.9,1.1-1.8,2.2-2.7,3.3c-0.5,0.6-1,1.3-1.6,1.8c-0.7,0.6-1.2,0.5-1.8-0.3
		c1.5,0.1,2.1-0.9,2.8-1.9c0.9-1.2,1.7-2.4,2.8-3.5c1.7-1.6,2.6-3.5,2.9-5.8c0-0.3,0.2-0.5,0.4-0.7c0.5,0.9,0.6,1.9,0.5,2.8
		C347.3,232,346.9,233.1,346.7,234.2z M346.1,233.2c-0.1-0.1-0.2-0.2-0.2-0.1c-0.4,0.5-0.9,0.9-0.8,1.7
		C345.4,234.3,345.7,233.7,346.1,233.2z"/>
	<path class="st0" d="M301.3,107.9c-1.2-2.7-1.5-5.2,0.4-7.5c1.1-1.4,2.2-2.8,3.8-4.1c-0.1,0.6,0,0.9-0.2,1.2
		c-0.7,1.4-1.3,2.9-2.2,4.1c-0.8,1.2-1.3,2.4-1.3,3.8C301.8,106.1,301.9,107,301.3,107.9z"/>
	<path class="st0" d="M284.7,172.4c-0.2,0.9-0.5,1.8-0.7,2.7c-1,3.6-1.3,7.2-0.4,10.8c0,0.2,0.1,0.3,0.1,0.5
		c-0.1,0.3-0.2,0.6-0.3,0.9c-0.2-0.2-0.5-0.3-0.7-0.6c-0.2-0.3-0.2-0.6-0.3-1c-0.8-3.8-0.4-7.5,1.1-11.1c0.3-0.8,0.6-1.6,0.9-2.3
		C284.5,172.3,284.6,172.4,284.7,172.4z"/>
	<path class="st0" d="M316,142.8c-1.3-1.2-2.4-5.1-1.8-6.7C316.1,137.2,317.2,140.9,316,142.8z"/>
	<path class="st0" d="M311.2,180.9c-0.1,0.4-0.2,0.8-0.3,1.1c-0.8,1.6-1.3,3.4-1.6,5.2c-0.1,0.5-0.1,1.2-0.7,1.2
		c-0.8,0-0.4-0.8-0.4-1.2c0-0.5,0-1,0-1.5c0.1-1.7,0.8-3.2,2-4.4c0.1-0.1,0.3-0.3,0.5-0.4C310.7,180.8,310.8,180.9,311.2,180.9z"/>
	<path class="st0" d="M269.4,56.3c1.2-0.3,2.2-0.6,3.3-0.7c0.6-0.1,1.3,0,1.9,0.1c0.6,0.2,0.9,0.8,0.7,1.4c-0.2,0.6-0.6,0.7-1.2,0.7
		c-0.1,0-0.3,0-0.4,0c-1-0.5-2.1-0.5-3.2-0.5C269.9,57.4,269.4,57.1,269.4,56.3z"/>
	<path class="st0" d="M270.6,158.8c0-0.2-0.2-0.5-0.1-0.7c0.1-0.4,0.2-0.8,0.4-1.2c1.9-4.3,4.6-8,8.2-11.1c-1.1,1.3-2.2,2.6-3.1,4
		c-1,1.4-1.9,2.9-2.8,4.4c-0.8,1.5-1.5,3.1-2.2,4.6C270.8,158.8,270.7,158.8,270.6,158.8z"/>
	<path class="st0" d="M303.8,132.2c0.2-0.1,0.3-0.2,0.5-0.3c2.1-0.3,4.1-0.5,6.1,0.3c1,0.4,1.2,0.6,1.7,1.7
		C309.4,132.7,306.6,132.9,303.8,132.2z"/>
	<path class="st0" d="M312.9,182.5c-1,2.9-1.9,5.7-2.9,8.5c-0.1,0.4-0.2,1.2-0.9,0.9c-0.7-0.3-0.1-0.9,0.1-1.3
		c0.8-1.6,1.5-3.2,1.9-5c0.2-0.8,0.5-1.5,0.8-2.3C312.1,183.1,312.4,182.6,312.9,182.5z"/>
	<path class="st0" d="M313,167.9c0.6-2.2,1.6-4,2.9-5.6c0.2-0.2,0.4-0.5,0.6-0.6c0.1-0.1,0.4,0,0.5,0.2c0.1,0.1,0.1,0.4,0,0.4
		c-1.7,1.5-2.7,3.5-3.8,5.3C313.3,167.7,313.2,167.8,313,167.9z"/>
	<path class="st0" d="M310.1,227.1c-1.3-0.8-2.1-1.9-2.6-3.2C308.7,224.7,309.6,225.7,310.1,227.1z"/>
	<path class="st0" d="M308.8,179.4c0.1-0.6,0.2-1.1,0.2-1.7c0.1,0,0.1,0,0.2,0c0,0.6-0.1,1.1-0.1,1.7
		C309,179.4,308.9,179.4,308.8,179.4z"/>
	<path class="st0" d="M185.8,103.9c0.3-0.2,0.5-0.5,0.8-0.7c0,0,0.1,0.1,0.1,0.1c-0.3,0.2-0.5,0.5-0.8,0.7
		C185.9,104,185.9,103.9,185.8,103.9z"/>
	<path class="st0" d="M361,194.7c0.7-0.2,1.3-0.4,1.9-0.7c1-0.4,1.7-1,1.6-2.2c-0.1-0.8-0.1-1.7-0.2-2.5c-0.3-2.2,0.9-4.1,2.9-4.8
		c1.7-0.6,3.7,0.2,4.5,1.8c0.3,0.5,0.4,1.2,0.3,1.8c-0.1,0.7-0.4,1.4-0.9,1.9c-2.1,2.3-4.5,4.2-7.6,4.9
		C362.7,195.2,361.9,195.4,361,194.7z"/>
	<path class="st0" d="M154.2,251.6c-0.9,0.2-1.2-0.2-1.4-0.6c-0.2-0.7-0.4-1.4-0.4-2.1c-0.1-3.5,0.9-6.7,3.1-9.5
		c1.7-2.1,3.5-3.9,5.7-5.5c0.4-0.3,0.9-0.6,1.3-0.7c0.9-0.3,1.5-0.1,2,0.7c1.2,2,1.5,4.2,0.8,6.4c-0.5,1.7-2,2.5-3.6,3
		c-0.4,0.1-0.8,0.2-1.2,0.3c-1.9,0.2-3.5,1-5.1,2c-1.3,0.8-2,2-2.3,3.4c-0.2,0.7,0,1.3,0.4,1.9C153.7,251,153.9,251.2,154.2,251.6z"
		/>
</g>
</svg>
